<mxfile host="app.diagrams.net" modified="2023-03-03T11:25:58.577Z" agent="5.0 (Windows NT 10.0; Win64; x64) AppleWebKit/537.36 (KHTML, like Gecko) Chrome/109.0.0.0 Safari/537.36" etag="yrktxVMCQcv689IASL4_" version="20.8.23" type="github">
  <diagram id="fuXRUbLeXdpRwsb8F6Av" name="第 1 页">
    <mxGraphModel dx="6487" dy="2232" grid="0" gridSize="10" guides="1" tooltips="1" connect="1" arrows="1" fold="1" page="1" pageScale="1" pageWidth="2339" pageHeight="3300" math="0" shadow="0">
      <root>
        <mxCell id="0" />
        <mxCell id="1" parent="0" />
        <mxCell id="4YGwfSdNvjNyGjVk5963-13" value="" style="group" parent="1" vertex="1" connectable="0">
          <mxGeometry x="293" y="179" width="410" height="170" as="geometry" />
        </mxCell>
        <mxCell id="4YGwfSdNvjNyGjVk5963-2" value="" style="rounded=0;whiteSpace=wrap;html=1;strokeWidth=3;" parent="4YGwfSdNvjNyGjVk5963-13" vertex="1">
          <mxGeometry width="410" height="170" as="geometry" />
        </mxCell>
        <mxCell id="4YGwfSdNvjNyGjVk5963-4" value="" style="rounded=1;whiteSpace=wrap;html=1;strokeWidth=2;fillWeight=4;hachureGap=8;hachureAngle=45;fillColor=#b0e3e6;sketch=1;strokeColor=#0e8088;" parent="4YGwfSdNvjNyGjVk5963-13" vertex="1">
          <mxGeometry x="351.42857142857144" width="48.80952380952381" height="170" as="geometry" />
        </mxCell>
        <mxCell id="4YGwfSdNvjNyGjVk5963-5" value="" style="rounded=1;whiteSpace=wrap;html=1;strokeWidth=2;fillWeight=4;hachureGap=8;hachureAngle=45;fillColor=#60a917;sketch=1;fontColor=#ffffff;strokeColor=#2D7600;" parent="4YGwfSdNvjNyGjVk5963-13" vertex="1">
          <mxGeometry x="302.6190476190476" width="48.80952380952381" height="170" as="geometry" />
        </mxCell>
        <mxCell id="4YGwfSdNvjNyGjVk5963-6" value="" style="rounded=1;whiteSpace=wrap;html=1;strokeWidth=2;fillWeight=4;hachureGap=8;hachureAngle=45;fillColor=#e1d5e7;sketch=1;strokeColor=#9673a6;" parent="4YGwfSdNvjNyGjVk5963-13" vertex="1">
          <mxGeometry x="253.8095238095238" width="48.80952380952381" height="170" as="geometry" />
        </mxCell>
        <mxCell id="4YGwfSdNvjNyGjVk5963-7" value="" style="rounded=1;whiteSpace=wrap;html=1;strokeWidth=2;fillWeight=4;hachureGap=8;hachureAngle=45;fillColor=#ffe6cc;sketch=1;strokeColor=#d79b00;" parent="4YGwfSdNvjNyGjVk5963-13" vertex="1">
          <mxGeometry x="205" width="48.80952380952381" height="170" as="geometry" />
        </mxCell>
        <mxCell id="4YGwfSdNvjNyGjVk5963-9" value="" style="rounded=1;whiteSpace=wrap;html=1;strokeWidth=2;fillWeight=4;hachureGap=8;hachureAngle=45;fillColor=#fff2cc;sketch=1;strokeColor=#d6b656;" parent="4YGwfSdNvjNyGjVk5963-13" vertex="1">
          <mxGeometry x="156.19047619047618" width="48.80952380952381" height="170" as="geometry" />
        </mxCell>
        <mxCell id="4YGwfSdNvjNyGjVk5963-10" value="" style="rounded=1;whiteSpace=wrap;html=1;strokeWidth=2;fillWeight=4;hachureGap=8;hachureAngle=45;fillColor=#f8cecc;sketch=1;strokeColor=#b85450;" parent="4YGwfSdNvjNyGjVk5963-13" vertex="1">
          <mxGeometry x="107.38095238095238" width="48.80952380952381" height="170" as="geometry" />
        </mxCell>
        <mxCell id="4YGwfSdNvjNyGjVk5963-11" value="" style="rounded=1;whiteSpace=wrap;html=1;strokeWidth=2;fillWeight=4;hachureGap=8;hachureAngle=45;fillColor=#dae8fc;sketch=1;strokeColor=#6c8ebf;" parent="4YGwfSdNvjNyGjVk5963-13" vertex="1">
          <mxGeometry x="58.57142857142857" width="48.80952380952381" height="170" as="geometry" />
        </mxCell>
        <mxCell id="4YGwfSdNvjNyGjVk5963-12" value="" style="rounded=1;whiteSpace=wrap;html=1;strokeWidth=2;fillWeight=4;hachureGap=8;hachureAngle=45;fillColor=#d5e8d4;sketch=1;strokeColor=#82b366;" parent="4YGwfSdNvjNyGjVk5963-13" vertex="1">
          <mxGeometry x="9.761904761904761" width="48.80952380952381" height="170" as="geometry" />
        </mxCell>
        <mxCell id="4YGwfSdNvjNyGjVk5963-14" value="" style="group" parent="1" vertex="1" connectable="0">
          <mxGeometry x="733" y="179" width="410" height="170" as="geometry" />
        </mxCell>
        <mxCell id="4YGwfSdNvjNyGjVk5963-15" value="" style="rounded=0;whiteSpace=wrap;html=1;strokeWidth=3;" parent="4YGwfSdNvjNyGjVk5963-14" vertex="1">
          <mxGeometry width="410" height="170" as="geometry" />
        </mxCell>
        <mxCell id="4YGwfSdNvjNyGjVk5963-16" value="" style="rounded=1;whiteSpace=wrap;html=1;strokeWidth=2;fillWeight=4;hachureGap=8;hachureAngle=45;fillColor=#b0e3e6;sketch=1;strokeColor=#0e8088;" parent="4YGwfSdNvjNyGjVk5963-14" vertex="1">
          <mxGeometry x="351.42857142857144" width="48.80952380952381" height="170" as="geometry" />
        </mxCell>
        <mxCell id="4YGwfSdNvjNyGjVk5963-17" value="" style="rounded=1;whiteSpace=wrap;html=1;strokeWidth=2;fillWeight=4;hachureGap=8;hachureAngle=45;fillColor=#60a917;sketch=1;fontColor=#ffffff;strokeColor=#2D7600;" parent="4YGwfSdNvjNyGjVk5963-14" vertex="1">
          <mxGeometry x="302.6190476190476" width="48.80952380952381" height="170" as="geometry" />
        </mxCell>
        <mxCell id="4YGwfSdNvjNyGjVk5963-18" value="" style="rounded=1;whiteSpace=wrap;html=1;strokeWidth=2;fillWeight=4;hachureGap=8;hachureAngle=45;fillColor=#e1d5e7;sketch=1;strokeColor=#9673a6;" parent="4YGwfSdNvjNyGjVk5963-14" vertex="1">
          <mxGeometry x="253.8095238095238" width="48.80952380952381" height="170" as="geometry" />
        </mxCell>
        <mxCell id="4YGwfSdNvjNyGjVk5963-19" value="" style="rounded=1;whiteSpace=wrap;html=1;strokeWidth=2;fillWeight=4;hachureGap=8;hachureAngle=45;fillColor=#ffe6cc;sketch=1;strokeColor=#d79b00;" parent="4YGwfSdNvjNyGjVk5963-14" vertex="1">
          <mxGeometry x="205" width="48.80952380952381" height="170" as="geometry" />
        </mxCell>
        <mxCell id="4YGwfSdNvjNyGjVk5963-20" value="" style="rounded=1;whiteSpace=wrap;html=1;strokeWidth=2;fillWeight=4;hachureGap=8;hachureAngle=45;fillColor=#fff2cc;sketch=1;strokeColor=#d6b656;" parent="4YGwfSdNvjNyGjVk5963-14" vertex="1">
          <mxGeometry x="156.19047619047618" width="48.80952380952381" height="170" as="geometry" />
        </mxCell>
        <mxCell id="4YGwfSdNvjNyGjVk5963-21" value="" style="rounded=1;whiteSpace=wrap;html=1;strokeWidth=2;fillWeight=4;hachureGap=8;hachureAngle=45;fillColor=#f8cecc;sketch=1;strokeColor=#b85450;" parent="4YGwfSdNvjNyGjVk5963-14" vertex="1">
          <mxGeometry x="107.38095238095238" width="48.80952380952381" height="170" as="geometry" />
        </mxCell>
        <mxCell id="4YGwfSdNvjNyGjVk5963-22" value="" style="rounded=1;whiteSpace=wrap;html=1;strokeWidth=2;fillWeight=4;hachureGap=8;hachureAngle=45;fillColor=#dae8fc;sketch=1;strokeColor=#6c8ebf;" parent="4YGwfSdNvjNyGjVk5963-14" vertex="1">
          <mxGeometry x="58.57142857142857" width="48.80952380952381" height="170" as="geometry" />
        </mxCell>
        <mxCell id="4YGwfSdNvjNyGjVk5963-23" value="" style="rounded=1;whiteSpace=wrap;html=1;strokeWidth=2;fillWeight=4;hachureGap=8;hachureAngle=45;fillColor=#d5e8d4;sketch=1;strokeColor=#82b366;" parent="4YGwfSdNvjNyGjVk5963-14" vertex="1">
          <mxGeometry x="9.761904761904761" width="48.80952380952381" height="170" as="geometry" />
        </mxCell>
        <mxCell id="4YGwfSdNvjNyGjVk5963-24" value="" style="group" parent="1" vertex="1" connectable="0">
          <mxGeometry x="1163" y="179" width="410" height="170" as="geometry" />
        </mxCell>
        <mxCell id="4YGwfSdNvjNyGjVk5963-25" value="" style="rounded=0;whiteSpace=wrap;html=1;strokeWidth=3;" parent="4YGwfSdNvjNyGjVk5963-24" vertex="1">
          <mxGeometry width="410" height="170" as="geometry" />
        </mxCell>
        <mxCell id="4YGwfSdNvjNyGjVk5963-26" value="" style="rounded=1;whiteSpace=wrap;html=1;strokeWidth=2;fillWeight=4;hachureGap=8;hachureAngle=45;fillColor=#b0e3e6;sketch=1;strokeColor=#0e8088;" parent="4YGwfSdNvjNyGjVk5963-24" vertex="1">
          <mxGeometry x="351.42857142857144" width="48.80952380952381" height="170" as="geometry" />
        </mxCell>
        <mxCell id="4YGwfSdNvjNyGjVk5963-27" value="" style="rounded=1;whiteSpace=wrap;html=1;strokeWidth=2;fillWeight=4;hachureGap=8;hachureAngle=45;fillColor=#60a917;sketch=1;fontColor=#ffffff;strokeColor=#2D7600;" parent="4YGwfSdNvjNyGjVk5963-24" vertex="1">
          <mxGeometry x="302.6190476190476" width="48.80952380952381" height="170" as="geometry" />
        </mxCell>
        <mxCell id="4YGwfSdNvjNyGjVk5963-28" value="" style="rounded=1;whiteSpace=wrap;html=1;strokeWidth=2;fillWeight=4;hachureGap=8;hachureAngle=45;fillColor=#e1d5e7;sketch=1;strokeColor=#9673a6;" parent="4YGwfSdNvjNyGjVk5963-24" vertex="1">
          <mxGeometry x="253.8095238095238" width="48.80952380952381" height="170" as="geometry" />
        </mxCell>
        <mxCell id="4YGwfSdNvjNyGjVk5963-29" value="" style="rounded=1;whiteSpace=wrap;html=1;strokeWidth=2;fillWeight=4;hachureGap=8;hachureAngle=45;fillColor=#ffe6cc;sketch=1;strokeColor=#d79b00;" parent="4YGwfSdNvjNyGjVk5963-24" vertex="1">
          <mxGeometry x="205" width="48.80952380952381" height="170" as="geometry" />
        </mxCell>
        <mxCell id="4YGwfSdNvjNyGjVk5963-30" value="" style="rounded=1;whiteSpace=wrap;html=1;strokeWidth=2;fillWeight=4;hachureGap=8;hachureAngle=45;fillColor=#fff2cc;sketch=1;strokeColor=#d6b656;" parent="4YGwfSdNvjNyGjVk5963-24" vertex="1">
          <mxGeometry x="156.19047619047618" width="48.80952380952381" height="170" as="geometry" />
        </mxCell>
        <mxCell id="4YGwfSdNvjNyGjVk5963-31" value="" style="rounded=1;whiteSpace=wrap;html=1;strokeWidth=2;fillWeight=4;hachureGap=8;hachureAngle=45;fillColor=#f8cecc;sketch=1;strokeColor=#b85450;" parent="4YGwfSdNvjNyGjVk5963-24" vertex="1">
          <mxGeometry x="107.38095238095238" width="48.80952380952381" height="170" as="geometry" />
        </mxCell>
        <mxCell id="4YGwfSdNvjNyGjVk5963-32" value="" style="rounded=1;whiteSpace=wrap;html=1;strokeWidth=2;fillWeight=4;hachureGap=8;hachureAngle=45;fillColor=#dae8fc;sketch=1;strokeColor=#6c8ebf;" parent="4YGwfSdNvjNyGjVk5963-24" vertex="1">
          <mxGeometry x="58.57142857142857" width="48.80952380952381" height="170" as="geometry" />
        </mxCell>
        <mxCell id="4YGwfSdNvjNyGjVk5963-33" value="" style="rounded=1;whiteSpace=wrap;html=1;strokeWidth=2;fillWeight=4;hachureGap=8;hachureAngle=45;fillColor=#d5e8d4;sketch=1;strokeColor=#82b366;" parent="4YGwfSdNvjNyGjVk5963-24" vertex="1">
          <mxGeometry x="9.761904761904761" width="48.80952380952381" height="170" as="geometry" />
        </mxCell>
        <mxCell id="4YGwfSdNvjNyGjVk5963-34" value="&lt;font style=&quot;font-size: 26px;&quot;&gt;...&lt;/font&gt;" style="text;html=1;strokeColor=none;fillColor=none;align=center;verticalAlign=middle;whiteSpace=wrap;rounded=0;strokeWidth=3;" parent="1" vertex="1">
          <mxGeometry x="1643" y="239" width="60" height="30" as="geometry" />
        </mxCell>
        <mxCell id="4YGwfSdNvjNyGjVk5963-35" value="" style="group" parent="1" vertex="1" connectable="0">
          <mxGeometry x="1783" y="179" width="410" height="170" as="geometry" />
        </mxCell>
        <mxCell id="4YGwfSdNvjNyGjVk5963-36" value="" style="rounded=0;whiteSpace=wrap;html=1;strokeWidth=3;" parent="4YGwfSdNvjNyGjVk5963-35" vertex="1">
          <mxGeometry width="410" height="170" as="geometry" />
        </mxCell>
        <mxCell id="4YGwfSdNvjNyGjVk5963-37" value="" style="rounded=1;whiteSpace=wrap;html=1;strokeWidth=2;fillWeight=4;hachureGap=8;hachureAngle=45;fillColor=#b0e3e6;sketch=1;strokeColor=#0e8088;" parent="4YGwfSdNvjNyGjVk5963-35" vertex="1">
          <mxGeometry x="351.42857142857144" width="48.80952380952381" height="170" as="geometry" />
        </mxCell>
        <mxCell id="4YGwfSdNvjNyGjVk5963-38" value="" style="rounded=1;whiteSpace=wrap;html=1;strokeWidth=2;fillWeight=4;hachureGap=8;hachureAngle=45;fillColor=#60a917;sketch=1;fontColor=#ffffff;strokeColor=#2D7600;" parent="4YGwfSdNvjNyGjVk5963-35" vertex="1">
          <mxGeometry x="302.6190476190476" width="48.80952380952381" height="170" as="geometry" />
        </mxCell>
        <mxCell id="4YGwfSdNvjNyGjVk5963-39" value="" style="rounded=1;whiteSpace=wrap;html=1;strokeWidth=2;fillWeight=4;hachureGap=8;hachureAngle=45;fillColor=#e1d5e7;sketch=1;strokeColor=#9673a6;" parent="4YGwfSdNvjNyGjVk5963-35" vertex="1">
          <mxGeometry x="253.8095238095238" width="48.80952380952381" height="170" as="geometry" />
        </mxCell>
        <mxCell id="4YGwfSdNvjNyGjVk5963-40" value="" style="rounded=1;whiteSpace=wrap;html=1;strokeWidth=2;fillWeight=4;hachureGap=8;hachureAngle=45;fillColor=#ffe6cc;sketch=1;strokeColor=#d79b00;" parent="4YGwfSdNvjNyGjVk5963-35" vertex="1">
          <mxGeometry x="205" width="48.80952380952381" height="170" as="geometry" />
        </mxCell>
        <mxCell id="4YGwfSdNvjNyGjVk5963-41" value="" style="rounded=1;whiteSpace=wrap;html=1;strokeWidth=2;fillWeight=4;hachureGap=8;hachureAngle=45;fillColor=#fff2cc;sketch=1;strokeColor=#d6b656;" parent="4YGwfSdNvjNyGjVk5963-35" vertex="1">
          <mxGeometry x="156.19047619047618" width="48.80952380952381" height="170" as="geometry" />
        </mxCell>
        <mxCell id="4YGwfSdNvjNyGjVk5963-42" value="" style="rounded=1;whiteSpace=wrap;html=1;strokeWidth=2;fillWeight=4;hachureGap=8;hachureAngle=45;fillColor=#f8cecc;sketch=1;strokeColor=#b85450;" parent="4YGwfSdNvjNyGjVk5963-35" vertex="1">
          <mxGeometry x="107.38095238095238" width="48.80952380952381" height="170" as="geometry" />
        </mxCell>
        <mxCell id="4YGwfSdNvjNyGjVk5963-43" value="" style="rounded=1;whiteSpace=wrap;html=1;strokeWidth=2;fillWeight=4;hachureGap=8;hachureAngle=45;fillColor=#dae8fc;sketch=1;strokeColor=#6c8ebf;" parent="4YGwfSdNvjNyGjVk5963-35" vertex="1">
          <mxGeometry x="58.57142857142857" width="48.80952380952381" height="170" as="geometry" />
        </mxCell>
        <mxCell id="4YGwfSdNvjNyGjVk5963-44" value="" style="rounded=1;whiteSpace=wrap;html=1;strokeWidth=2;fillWeight=4;hachureGap=8;hachureAngle=45;fillColor=#d5e8d4;sketch=1;strokeColor=#82b366;" parent="4YGwfSdNvjNyGjVk5963-35" vertex="1">
          <mxGeometry x="9.761904761904761" width="48.80952380952381" height="170" as="geometry" />
        </mxCell>
        <mxCell id="4YGwfSdNvjNyGjVk5963-45" value="" style="group" parent="1" vertex="1" connectable="0">
          <mxGeometry x="293" y="829" width="410" height="170" as="geometry" />
        </mxCell>
        <mxCell id="4YGwfSdNvjNyGjVk5963-46" value="" style="rounded=0;whiteSpace=wrap;html=1;strokeWidth=3;" parent="4YGwfSdNvjNyGjVk5963-45" vertex="1">
          <mxGeometry width="410" height="170" as="geometry" />
        </mxCell>
        <mxCell id="4YGwfSdNvjNyGjVk5963-47" value="" style="rounded=1;whiteSpace=wrap;html=1;strokeWidth=2;fillWeight=4;hachureGap=8;hachureAngle=45;fillColor=#b0e3e6;sketch=1;strokeColor=#0e8088;" parent="4YGwfSdNvjNyGjVk5963-45" vertex="1">
          <mxGeometry x="351.42857142857144" width="48.80952380952381" height="170" as="geometry" />
        </mxCell>
        <mxCell id="4YGwfSdNvjNyGjVk5963-48" value="" style="rounded=1;whiteSpace=wrap;html=1;strokeWidth=2;fillWeight=4;hachureGap=8;hachureAngle=45;fillColor=#60a917;sketch=1;fontColor=#ffffff;strokeColor=#2D7600;" parent="4YGwfSdNvjNyGjVk5963-45" vertex="1">
          <mxGeometry x="302.6190476190476" width="48.80952380952381" height="170" as="geometry" />
        </mxCell>
        <mxCell id="4YGwfSdNvjNyGjVk5963-49" value="" style="rounded=1;whiteSpace=wrap;html=1;strokeWidth=2;fillWeight=4;hachureGap=8;hachureAngle=45;fillColor=#e1d5e7;sketch=1;strokeColor=#9673a6;" parent="4YGwfSdNvjNyGjVk5963-45" vertex="1">
          <mxGeometry x="253.8095238095238" width="48.80952380952381" height="170" as="geometry" />
        </mxCell>
        <mxCell id="4YGwfSdNvjNyGjVk5963-50" value="" style="rounded=1;whiteSpace=wrap;html=1;strokeWidth=2;fillWeight=4;hachureGap=8;hachureAngle=45;fillColor=#ffe6cc;sketch=1;strokeColor=#d79b00;" parent="4YGwfSdNvjNyGjVk5963-45" vertex="1">
          <mxGeometry x="205" width="48.80952380952381" height="170" as="geometry" />
        </mxCell>
        <mxCell id="4YGwfSdNvjNyGjVk5963-51" value="" style="rounded=1;whiteSpace=wrap;html=1;strokeWidth=2;fillWeight=4;hachureGap=8;hachureAngle=45;fillColor=#fff2cc;sketch=1;strokeColor=#d6b656;" parent="4YGwfSdNvjNyGjVk5963-45" vertex="1">
          <mxGeometry x="156.19047619047618" width="48.80952380952381" height="170" as="geometry" />
        </mxCell>
        <mxCell id="4YGwfSdNvjNyGjVk5963-52" value="" style="rounded=1;whiteSpace=wrap;html=1;strokeWidth=2;fillWeight=4;hachureGap=8;hachureAngle=45;fillColor=#f8cecc;sketch=1;strokeColor=#b85450;" parent="4YGwfSdNvjNyGjVk5963-45" vertex="1">
          <mxGeometry x="107.38095238095238" width="48.80952380952381" height="170" as="geometry" />
        </mxCell>
        <mxCell id="4YGwfSdNvjNyGjVk5963-53" value="" style="rounded=1;whiteSpace=wrap;html=1;strokeWidth=2;fillWeight=4;hachureGap=8;hachureAngle=45;fillColor=#dae8fc;sketch=1;strokeColor=#6c8ebf;" parent="4YGwfSdNvjNyGjVk5963-45" vertex="1">
          <mxGeometry x="58.57142857142857" width="48.80952380952381" height="170" as="geometry" />
        </mxCell>
        <mxCell id="4YGwfSdNvjNyGjVk5963-54" value="" style="rounded=1;whiteSpace=wrap;html=1;strokeWidth=2;fillWeight=4;hachureGap=8;hachureAngle=45;fillColor=#d5e8d4;sketch=1;strokeColor=#82b366;" parent="4YGwfSdNvjNyGjVk5963-45" vertex="1">
          <mxGeometry x="9.761904761904761" width="48.80952380952381" height="170" as="geometry" />
        </mxCell>
        <mxCell id="4YGwfSdNvjNyGjVk5963-55" value="&lt;font style=&quot;font-size: 26px;&quot;&gt;...&lt;/font&gt;" style="text;html=1;strokeColor=none;fillColor=none;align=center;verticalAlign=middle;whiteSpace=wrap;rounded=0;strokeWidth=3;" parent="1" vertex="1">
          <mxGeometry x="463" y="629" width="60" height="30" as="geometry" />
        </mxCell>
        <mxCell id="4YGwfSdNvjNyGjVk5963-56" style="edgeStyle=orthogonalEdgeStyle;rounded=0;orthogonalLoop=1;jettySize=auto;html=1;exitX=0.5;exitY=1;exitDx=0;exitDy=0;fontSize=26;startArrow=none;strokeColor=#FF3333;strokeWidth=3;" parent="1" source="4YGwfSdNvjNyGjVk5963-64" edge="1">
          <mxGeometry relative="1" as="geometry">
            <mxPoint x="913" y="589" as="targetPoint" />
            <Array as="points">
              <mxPoint x="453" y="469" />
              <mxPoint x="913" y="469" />
            </Array>
          </mxGeometry>
        </mxCell>
        <mxCell id="4YGwfSdNvjNyGjVk5963-57" style="edgeStyle=orthogonalEdgeStyle;rounded=0;orthogonalLoop=1;jettySize=auto;html=1;exitX=0.25;exitY=1;exitDx=0;exitDy=0;fontSize=26;strokeColor=#FF3333;strokeWidth=3;" parent="1" source="4YGwfSdNvjNyGjVk5963-23" edge="1">
          <mxGeometry relative="1" as="geometry">
            <mxPoint x="913" y="589" as="targetPoint" />
          </mxGeometry>
        </mxCell>
        <mxCell id="4YGwfSdNvjNyGjVk5963-58" style="edgeStyle=orthogonalEdgeStyle;rounded=0;orthogonalLoop=1;jettySize=auto;html=1;exitX=0.5;exitY=1;exitDx=0;exitDy=0;fontSize=26;strokeColor=#FF3333;strokeWidth=3;" parent="1" source="4YGwfSdNvjNyGjVk5963-33" edge="1">
          <mxGeometry relative="1" as="geometry">
            <mxPoint x="913" y="589" as="targetPoint" />
          </mxGeometry>
        </mxCell>
        <mxCell id="4YGwfSdNvjNyGjVk5963-59" style="edgeStyle=orthogonalEdgeStyle;rounded=0;orthogonalLoop=1;jettySize=auto;html=1;exitX=0.5;exitY=1;exitDx=0;exitDy=0;fontSize=26;strokeColor=#FF3333;strokeWidth=3;" parent="1" source="4YGwfSdNvjNyGjVk5963-44" edge="1">
          <mxGeometry relative="1" as="geometry">
            <mxPoint x="913" y="589" as="targetPoint" />
          </mxGeometry>
        </mxCell>
        <mxCell id="4YGwfSdNvjNyGjVk5963-61" value="&lt;font style=&quot;font-size: 42px;&quot;&gt;bank0&lt;/font&gt;" style="text;html=1;strokeColor=none;fillColor=none;align=center;verticalAlign=middle;whiteSpace=wrap;rounded=0;strokeWidth=3;" parent="1" vertex="1">
          <mxGeometry x="883" y="609" width="60" height="30" as="geometry" />
        </mxCell>
        <mxCell id="4YGwfSdNvjNyGjVk5963-62" value="&lt;font style=&quot;font-size: 42px;&quot;&gt;512bits&lt;/font&gt;" style="text;html=1;strokeColor=none;fillColor=none;align=center;verticalAlign=middle;whiteSpace=wrap;rounded=0;strokeWidth=3;fontSize=26;" parent="1" vertex="1">
          <mxGeometry x="463" y="139" width="60" height="30" as="geometry" />
        </mxCell>
        <mxCell id="4YGwfSdNvjNyGjVk5963-64" value="&lt;font style=&quot;font-size: 42px;&quot;&gt;64bits&lt;/font&gt;" style="text;html=1;align=center;verticalAlign=middle;resizable=0;points=[];autosize=1;strokeColor=none;fillColor=none;fontSize=26;" parent="1" vertex="1">
          <mxGeometry x="409" y="407" width="130" height="62" as="geometry" />
        </mxCell>
        <mxCell id="4YGwfSdNvjNyGjVk5963-66" value="" style="edgeStyle=orthogonalEdgeStyle;rounded=0;orthogonalLoop=1;jettySize=auto;html=1;exitX=0.5;exitY=1;exitDx=0;exitDy=0;fontSize=26;endArrow=none;strokeColor=#FF3333;" parent="1" source="4YGwfSdNvjNyGjVk5963-12" target="4YGwfSdNvjNyGjVk5963-64" edge="1">
          <mxGeometry relative="1" as="geometry">
            <mxPoint x="913" y="589" as="targetPoint" />
            <mxPoint x="327.1666666666665" y="348.9999999999998" as="sourcePoint" />
            <Array as="points">
              <mxPoint x="327" y="469" />
            </Array>
          </mxGeometry>
        </mxCell>
        <mxCell id="4YGwfSdNvjNyGjVk5963-67" value="" style="shape=curlyBracket;whiteSpace=wrap;html=1;rounded=1;strokeWidth=3;fontSize=26;" parent="1" vertex="1">
          <mxGeometry x="233" y="179" width="20" height="820" as="geometry" />
        </mxCell>
        <mxCell id="4YGwfSdNvjNyGjVk5963-68" value="&lt;font style=&quot;font-size: 42px;&quot;&gt;256 sets&lt;/font&gt;" style="text;html=1;strokeColor=none;fillColor=none;align=center;verticalAlign=middle;whiteSpace=wrap;rounded=0;strokeWidth=3;fontSize=26;" parent="1" vertex="1">
          <mxGeometry x="8" y="517" width="229" height="66" as="geometry" />
        </mxCell>
        <mxCell id="4YGwfSdNvjNyGjVk5963-69" value="" style="shape=curlyBracket;whiteSpace=wrap;html=1;rounded=1;strokeWidth=3;fontSize=26;rotation=90;" parent="1" vertex="1">
          <mxGeometry x="1228" y="-826" width="20" height="1890" as="geometry" />
        </mxCell>
        <mxCell id="4YGwfSdNvjNyGjVk5963-70" value="&lt;font style=&quot;font-size: 42px;&quot;&gt;8 way&lt;/font&gt;" style="text;html=1;strokeColor=none;fillColor=none;align=center;verticalAlign=middle;whiteSpace=wrap;rounded=0;strokeWidth=3;fontSize=26;" parent="1" vertex="1">
          <mxGeometry x="1158" y="39" width="160" height="55" as="geometry" />
        </mxCell>
        <mxCell id="4YGwfSdNvjNyGjVk5963-72" style="edgeStyle=orthogonalEdgeStyle;rounded=0;orthogonalLoop=1;jettySize=auto;html=1;exitX=1;exitY=0;exitDx=0;exitDy=0;entryX=0.5;entryY=1;entryDx=0;entryDy=0;fontSize=26;curved=1;strokeWidth=3;" parent="1" source="4YGwfSdNvjNyGjVk5963-71" target="4YGwfSdNvjNyGjVk5963-51" edge="1">
          <mxGeometry relative="1" as="geometry" />
        </mxCell>
        <mxCell id="4YGwfSdNvjNyGjVk5963-71" value="&lt;font style=&quot;font-size: 42px;&quot;&gt;cache block&lt;/font&gt;" style="text;html=1;strokeColor=none;fillColor=none;align=center;verticalAlign=middle;whiteSpace=wrap;rounded=0;strokeWidth=3;fontSize=26;" parent="1" vertex="1">
          <mxGeometry x="80" y="1112" width="263" height="66" as="geometry" />
        </mxCell>
        <mxCell id="4YGwfSdNvjNyGjVk5963-73" style="rounded=0;orthogonalLoop=1;jettySize=auto;html=1;exitX=0.5;exitY=1;exitDx=0;exitDy=0;fontSize=26;edgeStyle=orthogonalEdgeStyle;strokeColor=#3333FF;strokeWidth=3;" parent="1" source="4YGwfSdNvjNyGjVk5963-4" edge="1">
          <mxGeometry relative="1" as="geometry">
            <mxPoint x="1493" y="659" as="targetPoint" />
          </mxGeometry>
        </mxCell>
        <mxCell id="4YGwfSdNvjNyGjVk5963-74" style="edgeStyle=orthogonalEdgeStyle;rounded=0;orthogonalLoop=1;jettySize=auto;html=1;exitX=0.5;exitY=1;exitDx=0;exitDy=0;fontSize=26;strokeColor=#3333FF;strokeWidth=3;" parent="1" source="4YGwfSdNvjNyGjVk5963-16" edge="1">
          <mxGeometry relative="1" as="geometry">
            <mxPoint x="1493" y="659" as="targetPoint" />
          </mxGeometry>
        </mxCell>
        <mxCell id="4YGwfSdNvjNyGjVk5963-75" style="edgeStyle=orthogonalEdgeStyle;rounded=0;orthogonalLoop=1;jettySize=auto;html=1;exitX=0.5;exitY=1;exitDx=0;exitDy=0;fontSize=26;strokeColor=#3333FF;strokeWidth=3;" parent="1" source="4YGwfSdNvjNyGjVk5963-26" edge="1">
          <mxGeometry relative="1" as="geometry">
            <mxPoint x="1493" y="659" as="targetPoint" />
          </mxGeometry>
        </mxCell>
        <mxCell id="4YGwfSdNvjNyGjVk5963-76" style="edgeStyle=orthogonalEdgeStyle;rounded=0;orthogonalLoop=1;jettySize=auto;html=1;exitX=0.5;exitY=1;exitDx=0;exitDy=0;fontSize=26;strokeColor=#3333FF;strokeWidth=3;" parent="1" source="4YGwfSdNvjNyGjVk5963-37" edge="1">
          <mxGeometry relative="1" as="geometry">
            <mxPoint x="1493" y="659" as="targetPoint" />
          </mxGeometry>
        </mxCell>
        <mxCell id="4YGwfSdNvjNyGjVk5963-77" value="&lt;font style=&quot;font-size: 42px;&quot;&gt;bank7&lt;/font&gt;" style="text;html=1;strokeColor=none;fillColor=none;align=center;verticalAlign=middle;whiteSpace=wrap;rounded=0;strokeWidth=3;" parent="1" vertex="1">
          <mxGeometry x="1463" y="669" width="60" height="30" as="geometry" />
        </mxCell>
        <mxCell id="_Xy94hhFwid7vifyO8l3-1" value="" style="group" vertex="1" connectable="0" parent="1">
          <mxGeometry x="330" y="1505" width="410" height="170" as="geometry" />
        </mxCell>
        <mxCell id="_Xy94hhFwid7vifyO8l3-2" value="&lt;font style=&quot;font-size: 48px;&quot;&gt;tag&lt;/font&gt;" style="rounded=0;whiteSpace=wrap;html=1;strokeWidth=3;" vertex="1" parent="_Xy94hhFwid7vifyO8l3-1">
          <mxGeometry width="410" height="170" as="geometry" />
        </mxCell>
        <mxCell id="_Xy94hhFwid7vifyO8l3-11" value="" style="group" vertex="1" connectable="0" parent="1">
          <mxGeometry x="770" y="1505" width="410" height="170" as="geometry" />
        </mxCell>
        <mxCell id="_Xy94hhFwid7vifyO8l3-12" value="&lt;font style=&quot;font-size: 48px;&quot;&gt;tag&lt;/font&gt;" style="rounded=0;whiteSpace=wrap;html=1;strokeWidth=3;" vertex="1" parent="_Xy94hhFwid7vifyO8l3-11">
          <mxGeometry width="410" height="170" as="geometry" />
        </mxCell>
        <mxCell id="_Xy94hhFwid7vifyO8l3-21" value="" style="group;fillColor=#D5E8D4;strokeColor=#82b366;" vertex="1" connectable="0" parent="1">
          <mxGeometry x="1200" y="1505" width="410" height="170" as="geometry" />
        </mxCell>
        <mxCell id="_Xy94hhFwid7vifyO8l3-22" value="&lt;font style=&quot;font-size: 48px;&quot;&gt;tag&lt;/font&gt;" style="rounded=0;whiteSpace=wrap;html=1;strokeWidth=3;" vertex="1" parent="_Xy94hhFwid7vifyO8l3-21">
          <mxGeometry width="410" height="170" as="geometry" />
        </mxCell>
        <mxCell id="_Xy94hhFwid7vifyO8l3-32" value="" style="group" vertex="1" connectable="0" parent="1">
          <mxGeometry x="1820" y="1505" width="410" height="170" as="geometry" />
        </mxCell>
        <mxCell id="_Xy94hhFwid7vifyO8l3-33" value="&lt;font style=&quot;font-size: 48px;&quot;&gt;tag&lt;/font&gt;" style="rounded=0;whiteSpace=wrap;html=1;strokeWidth=3;" vertex="1" parent="_Xy94hhFwid7vifyO8l3-32">
          <mxGeometry width="410" height="170" as="geometry" />
        </mxCell>
        <mxCell id="_Xy94hhFwid7vifyO8l3-61" value="" style="shape=curlyBracket;whiteSpace=wrap;html=1;rounded=1;strokeWidth=3;fontSize=26;" vertex="1" parent="1">
          <mxGeometry x="270" y="1505" width="20" height="820" as="geometry" />
        </mxCell>
        <mxCell id="_Xy94hhFwid7vifyO8l3-62" value="&lt;font style=&quot;font-size: 48px;&quot;&gt;sets&lt;/font&gt;" style="text;html=1;strokeColor=none;fillColor=none;align=center;verticalAlign=middle;whiteSpace=wrap;rounded=0;strokeWidth=3;fontSize=26;" vertex="1" parent="1">
          <mxGeometry x="100" y="1880" width="160" height="55" as="geometry" />
        </mxCell>
        <mxCell id="_Xy94hhFwid7vifyO8l3-63" value="" style="shape=curlyBracket;whiteSpace=wrap;html=1;rounded=1;strokeWidth=3;fontSize=26;rotation=90;" vertex="1" parent="1">
          <mxGeometry x="1265" y="500" width="20" height="1890" as="geometry" />
        </mxCell>
        <mxCell id="_Xy94hhFwid7vifyO8l3-64" value="&lt;font style=&quot;font-size: 48px;&quot;&gt;ways&lt;/font&gt;" style="text;html=1;strokeColor=none;fillColor=none;align=center;verticalAlign=middle;whiteSpace=wrap;rounded=0;strokeWidth=3;fontSize=26;" vertex="1" parent="1">
          <mxGeometry x="1188" y="1341" width="160" height="55" as="geometry" />
        </mxCell>
        <mxCell id="_Xy94hhFwid7vifyO8l3-83" value="" style="group" vertex="1" connectable="0" parent="1">
          <mxGeometry x="312" y="3586" width="410" height="170" as="geometry" />
        </mxCell>
        <mxCell id="_Xy94hhFwid7vifyO8l3-84" value="&lt;font style=&quot;font-size: 32px;&quot;&gt;valid&lt;/font&gt;" style="rounded=0;whiteSpace=wrap;html=1;strokeWidth=3;" vertex="1" parent="_Xy94hhFwid7vifyO8l3-83">
          <mxGeometry width="410" height="170" as="geometry" />
        </mxCell>
        <mxCell id="_Xy94hhFwid7vifyO8l3-85" value="" style="group" vertex="1" connectable="0" parent="1">
          <mxGeometry x="752" y="3586" width="410" height="170" as="geometry" />
        </mxCell>
        <mxCell id="_Xy94hhFwid7vifyO8l3-86" value="&lt;font style=&quot;font-size: 32px;&quot;&gt;valid&lt;/font&gt;" style="rounded=0;whiteSpace=wrap;html=1;strokeWidth=3;" vertex="1" parent="_Xy94hhFwid7vifyO8l3-85">
          <mxGeometry width="410" height="170" as="geometry" />
        </mxCell>
        <mxCell id="_Xy94hhFwid7vifyO8l3-87" value="" style="group;fillColor=#D5E8D4;strokeColor=#82b366;" vertex="1" connectable="0" parent="1">
          <mxGeometry x="1182" y="3586" width="410" height="170" as="geometry" />
        </mxCell>
        <mxCell id="_Xy94hhFwid7vifyO8l3-88" value="&lt;font style=&quot;font-size: 32px;&quot;&gt;valid&lt;/font&gt;" style="rounded=0;whiteSpace=wrap;html=1;strokeWidth=3;" vertex="1" parent="_Xy94hhFwid7vifyO8l3-87">
          <mxGeometry width="410" height="170" as="geometry" />
        </mxCell>
        <mxCell id="_Xy94hhFwid7vifyO8l3-89" value="" style="group" vertex="1" connectable="0" parent="1">
          <mxGeometry x="1802" y="3586" width="410" height="170" as="geometry" />
        </mxCell>
        <mxCell id="_Xy94hhFwid7vifyO8l3-90" value="&lt;font style=&quot;font-size: 32px;&quot;&gt;valid&lt;/font&gt;" style="rounded=0;whiteSpace=wrap;html=1;strokeWidth=3;" vertex="1" parent="_Xy94hhFwid7vifyO8l3-89">
          <mxGeometry width="410" height="170" as="geometry" />
        </mxCell>
        <mxCell id="_Xy94hhFwid7vifyO8l3-91" value="" style="group" vertex="1" connectable="0" parent="1">
          <mxGeometry x="312" y="4236" width="410" height="170" as="geometry" />
        </mxCell>
        <mxCell id="_Xy94hhFwid7vifyO8l3-92" value="&lt;font style=&quot;font-size: 32px;&quot;&gt;invalid&lt;/font&gt;" style="rounded=0;whiteSpace=wrap;html=1;strokeWidth=3;" vertex="1" parent="_Xy94hhFwid7vifyO8l3-91">
          <mxGeometry width="410" height="170" as="geometry" />
        </mxCell>
        <mxCell id="_Xy94hhFwid7vifyO8l3-93" value="" style="shape=curlyBracket;whiteSpace=wrap;html=1;rounded=1;strokeWidth=3;fontSize=26;" vertex="1" parent="1">
          <mxGeometry x="252" y="3586" width="20" height="820" as="geometry" />
        </mxCell>
        <mxCell id="_Xy94hhFwid7vifyO8l3-94" value="&lt;font style=&quot;font-size: 32px;&quot;&gt;sets&lt;/font&gt;" style="text;html=1;strokeColor=none;fillColor=none;align=center;verticalAlign=middle;whiteSpace=wrap;rounded=0;strokeWidth=3;fontSize=26;" vertex="1" parent="1">
          <mxGeometry x="82" y="3961" width="160" height="55" as="geometry" />
        </mxCell>
        <mxCell id="_Xy94hhFwid7vifyO8l3-95" value="" style="shape=curlyBracket;whiteSpace=wrap;html=1;rounded=1;strokeWidth=3;fontSize=26;rotation=90;" vertex="1" parent="1">
          <mxGeometry x="1247" y="2581" width="20" height="1890" as="geometry" />
        </mxCell>
        <mxCell id="_Xy94hhFwid7vifyO8l3-96" value="&lt;font style=&quot;font-size: 32px;&quot;&gt;ways&lt;/font&gt;" style="text;html=1;strokeColor=none;fillColor=none;align=center;verticalAlign=middle;whiteSpace=wrap;rounded=0;strokeWidth=3;fontSize=26;" vertex="1" parent="1">
          <mxGeometry x="1177" y="3446" width="160" height="55" as="geometry" />
        </mxCell>
        <mxCell id="_Xy94hhFwid7vifyO8l3-97" value="" style="group" vertex="1" connectable="0" parent="1">
          <mxGeometry x="752" y="4236" width="410" height="170" as="geometry" />
        </mxCell>
        <mxCell id="_Xy94hhFwid7vifyO8l3-98" value="&lt;font style=&quot;font-size: 32px;&quot;&gt;invalid&lt;/font&gt;" style="rounded=0;whiteSpace=wrap;html=1;strokeWidth=3;" vertex="1" parent="_Xy94hhFwid7vifyO8l3-97">
          <mxGeometry width="410" height="170" as="geometry" />
        </mxCell>
        <mxCell id="_Xy94hhFwid7vifyO8l3-99" value="" style="group" vertex="1" connectable="0" parent="1">
          <mxGeometry x="1192" y="4236" width="410" height="170" as="geometry" />
        </mxCell>
        <mxCell id="_Xy94hhFwid7vifyO8l3-100" value="&lt;font style=&quot;font-size: 32px;&quot;&gt;valid&lt;/font&gt;" style="rounded=0;whiteSpace=wrap;html=1;strokeWidth=3;" vertex="1" parent="_Xy94hhFwid7vifyO8l3-99">
          <mxGeometry width="410" height="170" as="geometry" />
        </mxCell>
        <mxCell id="_Xy94hhFwid7vifyO8l3-101" value="" style="group" vertex="1" connectable="0" parent="1">
          <mxGeometry x="1802" y="4231" width="410" height="170" as="geometry" />
        </mxCell>
        <mxCell id="_Xy94hhFwid7vifyO8l3-102" value="&lt;font style=&quot;font-size: 32px;&quot;&gt;valid&lt;/font&gt;" style="rounded=0;whiteSpace=wrap;html=1;strokeWidth=3;" vertex="1" parent="_Xy94hhFwid7vifyO8l3-101">
          <mxGeometry width="410" height="170" as="geometry" />
        </mxCell>
        <mxCell id="_Xy94hhFwid7vifyO8l3-104" value="&lt;font style=&quot;font-size: 26px;&quot;&gt;...&lt;/font&gt;" style="text;html=1;strokeColor=none;fillColor=none;align=center;verticalAlign=middle;whiteSpace=wrap;rounded=0;strokeWidth=3;" vertex="1" parent="1">
          <mxGeometry x="1667" y="3656" width="60" height="30" as="geometry" />
        </mxCell>
        <mxCell id="_Xy94hhFwid7vifyO8l3-105" value="&lt;font style=&quot;font-size: 32px;&quot;&gt;valid&lt;/font&gt;" style="rounded=0;whiteSpace=wrap;html=1;strokeWidth=3;" vertex="1" parent="1">
          <mxGeometry x="312" y="3801" width="410" height="170" as="geometry" />
        </mxCell>
        <mxCell id="_Xy94hhFwid7vifyO8l3-106" value="&lt;font style=&quot;font-size: 32px;&quot;&gt;valid&lt;/font&gt;" style="rounded=0;whiteSpace=wrap;html=1;strokeWidth=3;" vertex="1" parent="1">
          <mxGeometry x="750" y="3801" width="410" height="170" as="geometry" />
        </mxCell>
        <mxCell id="_Xy94hhFwid7vifyO8l3-107" value="&lt;font style=&quot;font-size: 32px;&quot;&gt;valid&lt;/font&gt;" style="rounded=0;whiteSpace=wrap;html=1;strokeWidth=3;" vertex="1" parent="1">
          <mxGeometry x="1180" y="3801" width="410" height="170" as="geometry" />
        </mxCell>
        <mxCell id="_Xy94hhFwid7vifyO8l3-108" value="&lt;font style=&quot;font-size: 32px;&quot;&gt;valid&lt;/font&gt;" style="rounded=0;whiteSpace=wrap;html=1;strokeWidth=3;" vertex="1" parent="1">
          <mxGeometry x="1802" y="3801" width="410" height="170" as="geometry" />
        </mxCell>
        <mxCell id="_Xy94hhFwid7vifyO8l3-109" value="&lt;font style=&quot;font-size: 26px;&quot;&gt;...&lt;/font&gt;" style="text;html=1;strokeColor=none;fillColor=none;align=center;verticalAlign=middle;whiteSpace=wrap;rounded=0;strokeWidth=3;" vertex="1" parent="1">
          <mxGeometry x="1667" y="3857" width="60" height="30" as="geometry" />
        </mxCell>
        <mxCell id="_Xy94hhFwid7vifyO8l3-110" value="&lt;font style=&quot;font-size: 26px;&quot;&gt;...&lt;/font&gt;" style="text;html=1;strokeColor=none;fillColor=none;align=center;verticalAlign=middle;whiteSpace=wrap;rounded=0;strokeWidth=3;" vertex="1" parent="1">
          <mxGeometry x="487" y="4079" width="60" height="30" as="geometry" />
        </mxCell>
        <mxCell id="_Xy94hhFwid7vifyO8l3-111" value="&lt;font style=&quot;font-size: 26px;&quot;&gt;...&lt;/font&gt;" style="text;html=1;strokeColor=none;fillColor=none;align=center;verticalAlign=middle;whiteSpace=wrap;rounded=0;strokeWidth=3;" vertex="1" parent="1">
          <mxGeometry x="927" y="4079" width="60" height="30" as="geometry" />
        </mxCell>
        <mxCell id="_Xy94hhFwid7vifyO8l3-112" value="&lt;font style=&quot;font-size: 26px;&quot;&gt;...&lt;/font&gt;" style="text;html=1;strokeColor=none;fillColor=none;align=center;verticalAlign=middle;whiteSpace=wrap;rounded=0;strokeWidth=3;" vertex="1" parent="1">
          <mxGeometry x="1357" y="4079" width="60" height="30" as="geometry" />
        </mxCell>
        <mxCell id="_Xy94hhFwid7vifyO8l3-113" value="&lt;font style=&quot;font-size: 26px;&quot;&gt;...&lt;/font&gt;" style="text;html=1;strokeColor=none;fillColor=none;align=center;verticalAlign=middle;whiteSpace=wrap;rounded=0;strokeWidth=3;" vertex="1" parent="1">
          <mxGeometry x="1995" y="4079" width="60" height="30" as="geometry" />
        </mxCell>
        <mxCell id="_Xy94hhFwid7vifyO8l3-114" value="&lt;font style=&quot;font-size: 26px;&quot;&gt;...&lt;/font&gt;" style="text;html=1;strokeColor=none;fillColor=none;align=center;verticalAlign=middle;whiteSpace=wrap;rounded=0;strokeWidth=3;" vertex="1" parent="1">
          <mxGeometry x="1667" y="4291" width="60" height="30" as="geometry" />
        </mxCell>
        <mxCell id="_Xy94hhFwid7vifyO8l3-115" value="" style="group" vertex="1" connectable="0" parent="1">
          <mxGeometry x="325" y="2152" width="410" height="170" as="geometry" />
        </mxCell>
        <mxCell id="_Xy94hhFwid7vifyO8l3-116" value="&lt;font style=&quot;font-size: 48px;&quot;&gt;tag&lt;/font&gt;" style="rounded=0;whiteSpace=wrap;html=1;strokeWidth=3;" vertex="1" parent="_Xy94hhFwid7vifyO8l3-115">
          <mxGeometry width="410" height="170" as="geometry" />
        </mxCell>
        <mxCell id="_Xy94hhFwid7vifyO8l3-117" value="" style="group" vertex="1" connectable="0" parent="1">
          <mxGeometry x="772" y="2152" width="410" height="170" as="geometry" />
        </mxCell>
        <mxCell id="_Xy94hhFwid7vifyO8l3-118" value="&lt;font style=&quot;font-size: 48px;&quot;&gt;tag&lt;/font&gt;" style="rounded=0;whiteSpace=wrap;html=1;strokeWidth=3;" vertex="1" parent="_Xy94hhFwid7vifyO8l3-117">
          <mxGeometry width="410" height="170" as="geometry" />
        </mxCell>
        <mxCell id="_Xy94hhFwid7vifyO8l3-119" value="" style="group;fillColor=#D5E8D4;strokeColor=#82b366;" vertex="1" connectable="0" parent="1">
          <mxGeometry x="1205" y="2152" width="410" height="170" as="geometry" />
        </mxCell>
        <mxCell id="_Xy94hhFwid7vifyO8l3-120" value="&lt;font style=&quot;font-size: 48px;&quot;&gt;tag&lt;/font&gt;" style="rounded=0;whiteSpace=wrap;html=1;strokeWidth=3;" vertex="1" parent="_Xy94hhFwid7vifyO8l3-119">
          <mxGeometry width="410" height="170" as="geometry" />
        </mxCell>
        <mxCell id="_Xy94hhFwid7vifyO8l3-121" value="" style="group" vertex="1" connectable="0" parent="1">
          <mxGeometry x="1820" y="2152" width="410" height="170" as="geometry" />
        </mxCell>
        <mxCell id="_Xy94hhFwid7vifyO8l3-122" value="&lt;font style=&quot;font-size: 48px;&quot;&gt;tag&lt;/font&gt;" style="rounded=0;whiteSpace=wrap;html=1;strokeWidth=3;" vertex="1" parent="_Xy94hhFwid7vifyO8l3-121">
          <mxGeometry width="410" height="170" as="geometry" />
        </mxCell>
        <mxCell id="_Xy94hhFwid7vifyO8l3-123" value="" style="group" vertex="1" connectable="0" parent="1">
          <mxGeometry x="329.76" y="1707" width="410" height="170" as="geometry" />
        </mxCell>
        <mxCell id="_Xy94hhFwid7vifyO8l3-124" value="&lt;font style=&quot;font-size: 48px;&quot;&gt;tag&lt;/font&gt;" style="rounded=0;whiteSpace=wrap;html=1;strokeWidth=3;" vertex="1" parent="_Xy94hhFwid7vifyO8l3-123">
          <mxGeometry width="410" height="170" as="geometry" />
        </mxCell>
        <mxCell id="_Xy94hhFwid7vifyO8l3-125" value="" style="group" vertex="1" connectable="0" parent="1">
          <mxGeometry x="772" y="1707" width="410" height="170" as="geometry" />
        </mxCell>
        <mxCell id="_Xy94hhFwid7vifyO8l3-126" value="&lt;font style=&quot;font-size: 48px;&quot;&gt;tag&lt;/font&gt;" style="rounded=0;whiteSpace=wrap;html=1;strokeWidth=3;" vertex="1" parent="_Xy94hhFwid7vifyO8l3-125">
          <mxGeometry width="410" height="170" as="geometry" />
        </mxCell>
        <mxCell id="_Xy94hhFwid7vifyO8l3-127" value="" style="group" vertex="1" connectable="0" parent="1">
          <mxGeometry x="1205" y="1710" width="410" height="170" as="geometry" />
        </mxCell>
        <mxCell id="_Xy94hhFwid7vifyO8l3-128" value="&lt;font style=&quot;font-size: 48px;&quot;&gt;tag&lt;/font&gt;" style="rounded=0;whiteSpace=wrap;html=1;strokeWidth=3;" vertex="1" parent="_Xy94hhFwid7vifyO8l3-127">
          <mxGeometry width="410" height="170" as="geometry" />
        </mxCell>
        <mxCell id="_Xy94hhFwid7vifyO8l3-129" value="" style="group" vertex="1" connectable="0" parent="1">
          <mxGeometry x="1820" y="1710" width="410" height="170" as="geometry" />
        </mxCell>
        <mxCell id="_Xy94hhFwid7vifyO8l3-130" value="&lt;font style=&quot;font-size: 48px;&quot;&gt;tag&lt;/font&gt;" style="rounded=0;whiteSpace=wrap;html=1;strokeWidth=3;" vertex="1" parent="_Xy94hhFwid7vifyO8l3-129">
          <mxGeometry width="410" height="170" as="geometry" />
        </mxCell>
        <mxCell id="_Xy94hhFwid7vifyO8l3-131" value="&lt;font style=&quot;font-size: 26px;&quot;&gt;...&lt;/font&gt;" style="text;html=1;strokeColor=none;fillColor=none;align=center;verticalAlign=middle;whiteSpace=wrap;rounded=0;strokeWidth=3;" vertex="1" parent="1">
          <mxGeometry x="1677" y="1575" width="60" height="30" as="geometry" />
        </mxCell>
        <mxCell id="_Xy94hhFwid7vifyO8l3-133" value="&lt;font style=&quot;font-size: 26px;&quot;&gt;...&lt;/font&gt;" style="text;html=1;strokeColor=none;fillColor=none;align=center;verticalAlign=middle;whiteSpace=wrap;rounded=0;strokeWidth=3;" vertex="1" parent="1">
          <mxGeometry x="1677" y="1772" width="60" height="30" as="geometry" />
        </mxCell>
        <mxCell id="_Xy94hhFwid7vifyO8l3-134" value="&lt;font style=&quot;font-size: 26px;&quot;&gt;...&lt;/font&gt;" style="text;html=1;strokeColor=none;fillColor=none;align=center;verticalAlign=middle;whiteSpace=wrap;rounded=0;strokeWidth=3;" vertex="1" parent="1">
          <mxGeometry x="500" y="1991" width="60" height="30" as="geometry" />
        </mxCell>
        <mxCell id="_Xy94hhFwid7vifyO8l3-135" value="&lt;font style=&quot;font-size: 26px;&quot;&gt;...&lt;/font&gt;" style="text;html=1;strokeColor=none;fillColor=none;align=center;verticalAlign=middle;whiteSpace=wrap;rounded=0;strokeWidth=3;" vertex="1" parent="1">
          <mxGeometry x="945" y="1991" width="60" height="30" as="geometry" />
        </mxCell>
        <mxCell id="_Xy94hhFwid7vifyO8l3-136" value="&lt;font style=&quot;font-size: 26px;&quot;&gt;...&lt;/font&gt;" style="text;html=1;strokeColor=none;fillColor=none;align=center;verticalAlign=middle;whiteSpace=wrap;rounded=0;strokeWidth=3;" vertex="1" parent="1">
          <mxGeometry x="1375" y="1991" width="60" height="30" as="geometry" />
        </mxCell>
        <mxCell id="_Xy94hhFwid7vifyO8l3-141" value="&lt;font style=&quot;font-size: 26px;&quot;&gt;...&lt;/font&gt;" style="text;html=1;strokeColor=none;fillColor=none;align=center;verticalAlign=middle;whiteSpace=wrap;rounded=0;strokeWidth=3;" vertex="1" parent="1">
          <mxGeometry x="1677" y="2222" width="60" height="30" as="geometry" />
        </mxCell>
        <mxCell id="_Xy94hhFwid7vifyO8l3-142" value="&lt;font style=&quot;font-size: 26px;&quot;&gt;...&lt;/font&gt;" style="text;html=1;strokeColor=none;fillColor=none;align=center;verticalAlign=middle;whiteSpace=wrap;rounded=0;strokeWidth=3;" vertex="1" parent="1">
          <mxGeometry x="1995" y="1991" width="60" height="30" as="geometry" />
        </mxCell>
        <mxCell id="_Xy94hhFwid7vifyO8l3-177" value="" style="group" vertex="1" connectable="0" parent="1">
          <mxGeometry x="340" y="5698" width="410" height="170" as="geometry" />
        </mxCell>
        <mxCell id="_Xy94hhFwid7vifyO8l3-178" value="&lt;span style=&quot;font-size: 48px;&quot;&gt;Meta&lt;/span&gt;" style="rounded=0;whiteSpace=wrap;html=1;strokeWidth=3;" vertex="1" parent="_Xy94hhFwid7vifyO8l3-177">
          <mxGeometry width="410" height="170" as="geometry" />
        </mxCell>
        <mxCell id="_Xy94hhFwid7vifyO8l3-179" value="" style="group" vertex="1" connectable="0" parent="1">
          <mxGeometry x="780" y="5698" width="410" height="170" as="geometry" />
        </mxCell>
        <mxCell id="_Xy94hhFwid7vifyO8l3-180" value="&lt;font style=&quot;font-size: 48px;&quot;&gt;Meta&lt;/font&gt;" style="rounded=0;whiteSpace=wrap;html=1;strokeWidth=3;" vertex="1" parent="_Xy94hhFwid7vifyO8l3-179">
          <mxGeometry width="410" height="170" as="geometry" />
        </mxCell>
        <mxCell id="_Xy94hhFwid7vifyO8l3-181" value="" style="group;fillColor=#D5E8D4;strokeColor=#82b366;" vertex="1" connectable="0" parent="1">
          <mxGeometry x="1210" y="5698" width="410" height="170" as="geometry" />
        </mxCell>
        <mxCell id="_Xy94hhFwid7vifyO8l3-182" value="&lt;font style=&quot;font-size: 48px;&quot;&gt;Meta&lt;/font&gt;" style="rounded=0;whiteSpace=wrap;html=1;strokeWidth=3;" vertex="1" parent="_Xy94hhFwid7vifyO8l3-181">
          <mxGeometry width="410" height="170" as="geometry" />
        </mxCell>
        <mxCell id="_Xy94hhFwid7vifyO8l3-183" value="" style="group" vertex="1" connectable="0" parent="1">
          <mxGeometry x="1830" y="5698" width="410" height="170" as="geometry" />
        </mxCell>
        <mxCell id="_Xy94hhFwid7vifyO8l3-184" value="&lt;font style=&quot;font-size: 48px;&quot;&gt;Meta&lt;/font&gt;" style="rounded=0;whiteSpace=wrap;html=1;strokeWidth=3;" vertex="1" parent="_Xy94hhFwid7vifyO8l3-183">
          <mxGeometry width="410" height="170" as="geometry" />
        </mxCell>
        <mxCell id="_Xy94hhFwid7vifyO8l3-185" value="" style="shape=curlyBracket;whiteSpace=wrap;html=1;rounded=1;strokeWidth=3;fontSize=26;" vertex="1" parent="1">
          <mxGeometry x="280" y="5698" width="20" height="820" as="geometry" />
        </mxCell>
        <mxCell id="_Xy94hhFwid7vifyO8l3-186" value="&lt;font style=&quot;font-size: 48px;&quot;&gt;sets&lt;/font&gt;" style="text;html=1;strokeColor=none;fillColor=none;align=center;verticalAlign=middle;whiteSpace=wrap;rounded=0;strokeWidth=3;fontSize=26;" vertex="1" parent="1">
          <mxGeometry x="110" y="6073" width="160" height="55" as="geometry" />
        </mxCell>
        <mxCell id="_Xy94hhFwid7vifyO8l3-187" value="" style="shape=curlyBracket;whiteSpace=wrap;html=1;rounded=1;strokeWidth=3;fontSize=26;rotation=90;" vertex="1" parent="1">
          <mxGeometry x="1275" y="4693" width="20" height="1890" as="geometry" />
        </mxCell>
        <mxCell id="_Xy94hhFwid7vifyO8l3-188" value="&lt;font style=&quot;font-size: 48px;&quot;&gt;ways&lt;/font&gt;" style="text;html=1;strokeColor=none;fillColor=none;align=center;verticalAlign=middle;whiteSpace=wrap;rounded=0;strokeWidth=3;fontSize=26;" vertex="1" parent="1">
          <mxGeometry x="1198" y="5534" width="160" height="55" as="geometry" />
        </mxCell>
        <mxCell id="_Xy94hhFwid7vifyO8l3-189" value="" style="group" vertex="1" connectable="0" parent="1">
          <mxGeometry x="335" y="6345" width="410" height="170" as="geometry" />
        </mxCell>
        <mxCell id="_Xy94hhFwid7vifyO8l3-190" value="&lt;font style=&quot;font-size: 48px;&quot;&gt;Meta&lt;/font&gt;" style="rounded=0;whiteSpace=wrap;html=1;strokeWidth=3;" vertex="1" parent="_Xy94hhFwid7vifyO8l3-189">
          <mxGeometry width="410" height="170" as="geometry" />
        </mxCell>
        <mxCell id="_Xy94hhFwid7vifyO8l3-191" value="" style="group" vertex="1" connectable="0" parent="1">
          <mxGeometry x="782" y="6345" width="410" height="170" as="geometry" />
        </mxCell>
        <mxCell id="_Xy94hhFwid7vifyO8l3-192" value="&lt;font style=&quot;font-size: 48px;&quot;&gt;Meta&lt;/font&gt;" style="rounded=0;whiteSpace=wrap;html=1;strokeWidth=3;" vertex="1" parent="_Xy94hhFwid7vifyO8l3-191">
          <mxGeometry width="410" height="170" as="geometry" />
        </mxCell>
        <mxCell id="_Xy94hhFwid7vifyO8l3-193" value="" style="group;fillColor=#D5E8D4;strokeColor=#82b366;" vertex="1" connectable="0" parent="1">
          <mxGeometry x="1215" y="6345" width="410" height="170" as="geometry" />
        </mxCell>
        <mxCell id="_Xy94hhFwid7vifyO8l3-194" value="&lt;font style=&quot;font-size: 48px;&quot;&gt;Meta&lt;/font&gt;" style="rounded=0;whiteSpace=wrap;html=1;strokeWidth=3;" vertex="1" parent="_Xy94hhFwid7vifyO8l3-193">
          <mxGeometry width="410" height="170" as="geometry" />
        </mxCell>
        <mxCell id="_Xy94hhFwid7vifyO8l3-195" value="" style="group" vertex="1" connectable="0" parent="1">
          <mxGeometry x="1830" y="6345" width="410" height="170" as="geometry" />
        </mxCell>
        <mxCell id="_Xy94hhFwid7vifyO8l3-196" value="&lt;font style=&quot;font-size: 48px;&quot;&gt;Meta&lt;/font&gt;" style="rounded=0;whiteSpace=wrap;html=1;strokeWidth=3;" vertex="1" parent="_Xy94hhFwid7vifyO8l3-195">
          <mxGeometry width="410" height="170" as="geometry" />
        </mxCell>
        <mxCell id="_Xy94hhFwid7vifyO8l3-197" value="" style="group" vertex="1" connectable="0" parent="1">
          <mxGeometry x="339.76" y="5900" width="410" height="170" as="geometry" />
        </mxCell>
        <mxCell id="_Xy94hhFwid7vifyO8l3-198" value="&lt;font style=&quot;font-size: 48px;&quot;&gt;Meta&lt;/font&gt;" style="rounded=0;whiteSpace=wrap;html=1;strokeWidth=3;" vertex="1" parent="_Xy94hhFwid7vifyO8l3-197">
          <mxGeometry width="410" height="170" as="geometry" />
        </mxCell>
        <mxCell id="_Xy94hhFwid7vifyO8l3-199" value="" style="group" vertex="1" connectable="0" parent="1">
          <mxGeometry x="782" y="5900" width="410" height="170" as="geometry" />
        </mxCell>
        <mxCell id="_Xy94hhFwid7vifyO8l3-200" value="&lt;font style=&quot;font-size: 48px;&quot;&gt;Meta&lt;/font&gt;" style="rounded=0;whiteSpace=wrap;html=1;strokeWidth=3;" vertex="1" parent="_Xy94hhFwid7vifyO8l3-199">
          <mxGeometry width="410" height="170" as="geometry" />
        </mxCell>
        <mxCell id="_Xy94hhFwid7vifyO8l3-201" value="" style="group" vertex="1" connectable="0" parent="1">
          <mxGeometry x="1215" y="5903" width="410" height="170" as="geometry" />
        </mxCell>
        <mxCell id="_Xy94hhFwid7vifyO8l3-202" value="&lt;font style=&quot;font-size: 48px;&quot;&gt;Meta&lt;/font&gt;" style="rounded=0;whiteSpace=wrap;html=1;strokeWidth=3;" vertex="1" parent="_Xy94hhFwid7vifyO8l3-201">
          <mxGeometry width="410" height="170" as="geometry" />
        </mxCell>
        <mxCell id="_Xy94hhFwid7vifyO8l3-203" value="" style="group" vertex="1" connectable="0" parent="1">
          <mxGeometry x="1830" y="5903" width="410" height="170" as="geometry" />
        </mxCell>
        <mxCell id="_Xy94hhFwid7vifyO8l3-204" value="&lt;font style=&quot;font-size: 48px;&quot;&gt;Meta&lt;/font&gt;" style="rounded=0;whiteSpace=wrap;html=1;strokeWidth=3;" vertex="1" parent="_Xy94hhFwid7vifyO8l3-203">
          <mxGeometry width="410" height="170" as="geometry" />
        </mxCell>
        <mxCell id="_Xy94hhFwid7vifyO8l3-205" value="&lt;font style=&quot;font-size: 26px;&quot;&gt;...&lt;/font&gt;" style="text;html=1;strokeColor=none;fillColor=none;align=center;verticalAlign=middle;whiteSpace=wrap;rounded=0;strokeWidth=3;" vertex="1" parent="1">
          <mxGeometry x="1687" y="5768" width="60" height="30" as="geometry" />
        </mxCell>
        <mxCell id="_Xy94hhFwid7vifyO8l3-206" value="&lt;font style=&quot;font-size: 26px;&quot;&gt;...&lt;/font&gt;" style="text;html=1;strokeColor=none;fillColor=none;align=center;verticalAlign=middle;whiteSpace=wrap;rounded=0;strokeWidth=3;" vertex="1" parent="1">
          <mxGeometry x="1687" y="5965" width="60" height="30" as="geometry" />
        </mxCell>
        <mxCell id="_Xy94hhFwid7vifyO8l3-207" value="&lt;font style=&quot;font-size: 26px;&quot;&gt;...&lt;/font&gt;" style="text;html=1;strokeColor=none;fillColor=none;align=center;verticalAlign=middle;whiteSpace=wrap;rounded=0;strokeWidth=3;" vertex="1" parent="1">
          <mxGeometry x="510" y="6184" width="60" height="30" as="geometry" />
        </mxCell>
        <mxCell id="_Xy94hhFwid7vifyO8l3-208" value="&lt;font style=&quot;font-size: 26px;&quot;&gt;...&lt;/font&gt;" style="text;html=1;strokeColor=none;fillColor=none;align=center;verticalAlign=middle;whiteSpace=wrap;rounded=0;strokeWidth=3;" vertex="1" parent="1">
          <mxGeometry x="955" y="6184" width="60" height="30" as="geometry" />
        </mxCell>
        <mxCell id="_Xy94hhFwid7vifyO8l3-209" value="&lt;font style=&quot;font-size: 26px;&quot;&gt;...&lt;/font&gt;" style="text;html=1;strokeColor=none;fillColor=none;align=center;verticalAlign=middle;whiteSpace=wrap;rounded=0;strokeWidth=3;" vertex="1" parent="1">
          <mxGeometry x="1385" y="6184" width="60" height="30" as="geometry" />
        </mxCell>
        <mxCell id="_Xy94hhFwid7vifyO8l3-210" value="&lt;font style=&quot;font-size: 26px;&quot;&gt;...&lt;/font&gt;" style="text;html=1;strokeColor=none;fillColor=none;align=center;verticalAlign=middle;whiteSpace=wrap;rounded=0;strokeWidth=3;" vertex="1" parent="1">
          <mxGeometry x="1687" y="6415" width="60" height="30" as="geometry" />
        </mxCell>
        <mxCell id="_Xy94hhFwid7vifyO8l3-211" value="&lt;font style=&quot;font-size: 26px;&quot;&gt;...&lt;/font&gt;" style="text;html=1;strokeColor=none;fillColor=none;align=center;verticalAlign=middle;whiteSpace=wrap;rounded=0;strokeWidth=3;" vertex="1" parent="1">
          <mxGeometry x="2005" y="6184" width="60" height="30" as="geometry" />
        </mxCell>
        <mxCell id="_Xy94hhFwid7vifyO8l3-247" value="" style="group" vertex="1" connectable="0" parent="1">
          <mxGeometry x="340" y="6843" width="410" height="170" as="geometry" />
        </mxCell>
        <mxCell id="_Xy94hhFwid7vifyO8l3-248" value="&lt;span style=&quot;font-size: 48px;&quot;&gt;Data&lt;/span&gt;" style="rounded=0;whiteSpace=wrap;html=1;strokeWidth=3;" vertex="1" parent="_Xy94hhFwid7vifyO8l3-247">
          <mxGeometry width="410" height="170" as="geometry" />
        </mxCell>
        <mxCell id="_Xy94hhFwid7vifyO8l3-249" value="" style="group" vertex="1" connectable="0" parent="1">
          <mxGeometry x="780" y="6843" width="410" height="170" as="geometry" />
        </mxCell>
        <mxCell id="_Xy94hhFwid7vifyO8l3-250" value="&lt;span style=&quot;font-size: 48px;&quot;&gt;Data&lt;/span&gt;" style="rounded=0;whiteSpace=wrap;html=1;strokeWidth=3;" vertex="1" parent="_Xy94hhFwid7vifyO8l3-249">
          <mxGeometry width="410" height="170" as="geometry" />
        </mxCell>
        <mxCell id="_Xy94hhFwid7vifyO8l3-251" value="" style="group;fillColor=#D5E8D4;strokeColor=#82b366;" vertex="1" connectable="0" parent="1">
          <mxGeometry x="1210" y="6843" width="410" height="170" as="geometry" />
        </mxCell>
        <mxCell id="_Xy94hhFwid7vifyO8l3-252" value="&lt;font style=&quot;font-size: 48px;&quot;&gt;Data&lt;/font&gt;" style="rounded=0;whiteSpace=wrap;html=1;strokeWidth=3;" vertex="1" parent="_Xy94hhFwid7vifyO8l3-251">
          <mxGeometry width="410" height="170" as="geometry" />
        </mxCell>
        <mxCell id="_Xy94hhFwid7vifyO8l3-253" value="" style="group" vertex="1" connectable="0" parent="1">
          <mxGeometry x="1830" y="6843" width="410" height="170" as="geometry" />
        </mxCell>
        <mxCell id="_Xy94hhFwid7vifyO8l3-254" value="&lt;font style=&quot;font-size: 48px;&quot;&gt;Data&lt;/font&gt;" style="rounded=0;whiteSpace=wrap;html=1;strokeWidth=3;" vertex="1" parent="_Xy94hhFwid7vifyO8l3-253">
          <mxGeometry width="410" height="170" as="geometry" />
        </mxCell>
        <mxCell id="_Xy94hhFwid7vifyO8l3-255" value="" style="shape=curlyBracket;whiteSpace=wrap;html=1;rounded=1;strokeWidth=3;fontSize=26;" vertex="1" parent="1">
          <mxGeometry x="280" y="6843" width="20" height="820" as="geometry" />
        </mxCell>
        <mxCell id="_Xy94hhFwid7vifyO8l3-256" value="&lt;font style=&quot;font-size: 48px;&quot;&gt;sets&lt;/font&gt;" style="text;html=1;strokeColor=none;fillColor=none;align=center;verticalAlign=middle;whiteSpace=wrap;rounded=0;strokeWidth=3;fontSize=26;" vertex="1" parent="1">
          <mxGeometry x="110" y="7218" width="160" height="55" as="geometry" />
        </mxCell>
        <mxCell id="_Xy94hhFwid7vifyO8l3-257" value="" style="shape=curlyBracket;whiteSpace=wrap;html=1;rounded=1;strokeWidth=3;fontSize=26;rotation=90;" vertex="1" parent="1">
          <mxGeometry x="1275" y="5838" width="20" height="1890" as="geometry" />
        </mxCell>
        <mxCell id="_Xy94hhFwid7vifyO8l3-258" value="&lt;font style=&quot;font-size: 48px;&quot;&gt;ways&lt;/font&gt;" style="text;html=1;strokeColor=none;fillColor=none;align=center;verticalAlign=middle;whiteSpace=wrap;rounded=0;strokeWidth=3;fontSize=26;" vertex="1" parent="1">
          <mxGeometry x="1198" y="6679" width="160" height="55" as="geometry" />
        </mxCell>
        <mxCell id="_Xy94hhFwid7vifyO8l3-259" value="" style="group" vertex="1" connectable="0" parent="1">
          <mxGeometry x="335" y="7490" width="410" height="170" as="geometry" />
        </mxCell>
        <mxCell id="_Xy94hhFwid7vifyO8l3-260" value="&lt;font style=&quot;font-size: 48px;&quot;&gt;Data&lt;/font&gt;" style="rounded=0;whiteSpace=wrap;html=1;strokeWidth=3;" vertex="1" parent="_Xy94hhFwid7vifyO8l3-259">
          <mxGeometry width="410" height="170" as="geometry" />
        </mxCell>
        <mxCell id="_Xy94hhFwid7vifyO8l3-261" value="" style="group" vertex="1" connectable="0" parent="1">
          <mxGeometry x="782" y="7490" width="410" height="170" as="geometry" />
        </mxCell>
        <mxCell id="_Xy94hhFwid7vifyO8l3-262" value="&lt;font style=&quot;font-size: 48px;&quot;&gt;Data&lt;/font&gt;" style="rounded=0;whiteSpace=wrap;html=1;strokeWidth=3;" vertex="1" parent="_Xy94hhFwid7vifyO8l3-261">
          <mxGeometry width="410" height="170" as="geometry" />
        </mxCell>
        <mxCell id="_Xy94hhFwid7vifyO8l3-263" value="" style="group;fillColor=#D5E8D4;strokeColor=#82b366;" vertex="1" connectable="0" parent="1">
          <mxGeometry x="1215" y="7490" width="410" height="170" as="geometry" />
        </mxCell>
        <mxCell id="_Xy94hhFwid7vifyO8l3-264" value="&lt;font style=&quot;font-size: 48px;&quot;&gt;Data&lt;/font&gt;" style="rounded=0;whiteSpace=wrap;html=1;strokeWidth=3;" vertex="1" parent="_Xy94hhFwid7vifyO8l3-263">
          <mxGeometry width="410" height="170" as="geometry" />
        </mxCell>
        <mxCell id="_Xy94hhFwid7vifyO8l3-265" value="" style="group" vertex="1" connectable="0" parent="1">
          <mxGeometry x="1830" y="7490" width="410" height="170" as="geometry" />
        </mxCell>
        <mxCell id="_Xy94hhFwid7vifyO8l3-266" value="&lt;font style=&quot;font-size: 48px;&quot;&gt;Data&lt;/font&gt;" style="rounded=0;whiteSpace=wrap;html=1;strokeWidth=3;" vertex="1" parent="_Xy94hhFwid7vifyO8l3-265">
          <mxGeometry width="410" height="170" as="geometry" />
        </mxCell>
        <mxCell id="_Xy94hhFwid7vifyO8l3-267" value="" style="group" vertex="1" connectable="0" parent="1">
          <mxGeometry x="339.76" y="7045" width="410" height="170" as="geometry" />
        </mxCell>
        <mxCell id="_Xy94hhFwid7vifyO8l3-268" value="&lt;font style=&quot;font-size: 48px;&quot;&gt;Data&lt;/font&gt;" style="rounded=0;whiteSpace=wrap;html=1;strokeWidth=3;" vertex="1" parent="_Xy94hhFwid7vifyO8l3-267">
          <mxGeometry width="410" height="170" as="geometry" />
        </mxCell>
        <mxCell id="_Xy94hhFwid7vifyO8l3-269" value="" style="group" vertex="1" connectable="0" parent="1">
          <mxGeometry x="782" y="7045" width="410" height="170" as="geometry" />
        </mxCell>
        <mxCell id="_Xy94hhFwid7vifyO8l3-270" value="&lt;font style=&quot;font-size: 48px;&quot;&gt;Data&lt;/font&gt;" style="rounded=0;whiteSpace=wrap;html=1;strokeWidth=3;" vertex="1" parent="_Xy94hhFwid7vifyO8l3-269">
          <mxGeometry width="410" height="170" as="geometry" />
        </mxCell>
        <mxCell id="_Xy94hhFwid7vifyO8l3-271" value="" style="group" vertex="1" connectable="0" parent="1">
          <mxGeometry x="1215" y="7048" width="410" height="170" as="geometry" />
        </mxCell>
        <mxCell id="_Xy94hhFwid7vifyO8l3-272" value="&lt;font style=&quot;font-size: 48px;&quot;&gt;Data&lt;/font&gt;" style="rounded=0;whiteSpace=wrap;html=1;strokeWidth=3;" vertex="1" parent="_Xy94hhFwid7vifyO8l3-271">
          <mxGeometry width="410" height="170" as="geometry" />
        </mxCell>
        <mxCell id="_Xy94hhFwid7vifyO8l3-273" value="" style="group" vertex="1" connectable="0" parent="1">
          <mxGeometry x="1830" y="7048" width="410" height="170" as="geometry" />
        </mxCell>
        <mxCell id="_Xy94hhFwid7vifyO8l3-274" value="&lt;font style=&quot;font-size: 48px;&quot;&gt;Data&lt;/font&gt;" style="rounded=0;whiteSpace=wrap;html=1;strokeWidth=3;" vertex="1" parent="_Xy94hhFwid7vifyO8l3-273">
          <mxGeometry width="410" height="170" as="geometry" />
        </mxCell>
        <mxCell id="_Xy94hhFwid7vifyO8l3-275" value="&lt;font style=&quot;font-size: 26px;&quot;&gt;...&lt;/font&gt;" style="text;html=1;strokeColor=none;fillColor=none;align=center;verticalAlign=middle;whiteSpace=wrap;rounded=0;strokeWidth=3;" vertex="1" parent="1">
          <mxGeometry x="1687" y="6913" width="60" height="30" as="geometry" />
        </mxCell>
        <mxCell id="_Xy94hhFwid7vifyO8l3-276" value="&lt;font style=&quot;font-size: 26px;&quot;&gt;...&lt;/font&gt;" style="text;html=1;strokeColor=none;fillColor=none;align=center;verticalAlign=middle;whiteSpace=wrap;rounded=0;strokeWidth=3;" vertex="1" parent="1">
          <mxGeometry x="1687" y="7110" width="60" height="30" as="geometry" />
        </mxCell>
        <mxCell id="_Xy94hhFwid7vifyO8l3-277" value="&lt;font style=&quot;font-size: 26px;&quot;&gt;...&lt;/font&gt;" style="text;html=1;strokeColor=none;fillColor=none;align=center;verticalAlign=middle;whiteSpace=wrap;rounded=0;strokeWidth=3;" vertex="1" parent="1">
          <mxGeometry x="510" y="7329" width="60" height="30" as="geometry" />
        </mxCell>
        <mxCell id="_Xy94hhFwid7vifyO8l3-278" value="&lt;font style=&quot;font-size: 26px;&quot;&gt;...&lt;/font&gt;" style="text;html=1;strokeColor=none;fillColor=none;align=center;verticalAlign=middle;whiteSpace=wrap;rounded=0;strokeWidth=3;" vertex="1" parent="1">
          <mxGeometry x="955" y="7329" width="60" height="30" as="geometry" />
        </mxCell>
        <mxCell id="_Xy94hhFwid7vifyO8l3-279" value="&lt;font style=&quot;font-size: 26px;&quot;&gt;...&lt;/font&gt;" style="text;html=1;strokeColor=none;fillColor=none;align=center;verticalAlign=middle;whiteSpace=wrap;rounded=0;strokeWidth=3;" vertex="1" parent="1">
          <mxGeometry x="1385" y="7329" width="60" height="30" as="geometry" />
        </mxCell>
        <mxCell id="_Xy94hhFwid7vifyO8l3-280" value="&lt;font style=&quot;font-size: 26px;&quot;&gt;...&lt;/font&gt;" style="text;html=1;strokeColor=none;fillColor=none;align=center;verticalAlign=middle;whiteSpace=wrap;rounded=0;strokeWidth=3;" vertex="1" parent="1">
          <mxGeometry x="1687" y="7560" width="60" height="30" as="geometry" />
        </mxCell>
        <mxCell id="_Xy94hhFwid7vifyO8l3-281" value="&lt;font style=&quot;font-size: 26px;&quot;&gt;...&lt;/font&gt;" style="text;html=1;strokeColor=none;fillColor=none;align=center;verticalAlign=middle;whiteSpace=wrap;rounded=0;strokeWidth=3;" vertex="1" parent="1">
          <mxGeometry x="2005" y="7329" width="60" height="30" as="geometry" />
        </mxCell>
        <mxCell id="_Xy94hhFwid7vifyO8l3-282" value="" style="group" vertex="1" connectable="0" parent="1">
          <mxGeometry x="730" y="830" width="410" height="170" as="geometry" />
        </mxCell>
        <mxCell id="_Xy94hhFwid7vifyO8l3-283" value="" style="rounded=0;whiteSpace=wrap;html=1;strokeWidth=3;" vertex="1" parent="_Xy94hhFwid7vifyO8l3-282">
          <mxGeometry width="410" height="170" as="geometry" />
        </mxCell>
        <mxCell id="_Xy94hhFwid7vifyO8l3-284" value="" style="rounded=1;whiteSpace=wrap;html=1;strokeWidth=2;fillWeight=4;hachureGap=8;hachureAngle=45;fillColor=#b0e3e6;sketch=1;strokeColor=#0e8088;" vertex="1" parent="_Xy94hhFwid7vifyO8l3-282">
          <mxGeometry x="351.42857142857144" width="48.80952380952381" height="170" as="geometry" />
        </mxCell>
        <mxCell id="_Xy94hhFwid7vifyO8l3-285" value="" style="rounded=1;whiteSpace=wrap;html=1;strokeWidth=2;fillWeight=4;hachureGap=8;hachureAngle=45;fillColor=#60a917;sketch=1;fontColor=#ffffff;strokeColor=#2D7600;" vertex="1" parent="_Xy94hhFwid7vifyO8l3-282">
          <mxGeometry x="302.6190476190476" width="48.80952380952381" height="170" as="geometry" />
        </mxCell>
        <mxCell id="_Xy94hhFwid7vifyO8l3-286" value="" style="rounded=1;whiteSpace=wrap;html=1;strokeWidth=2;fillWeight=4;hachureGap=8;hachureAngle=45;fillColor=#e1d5e7;sketch=1;strokeColor=#9673a6;" vertex="1" parent="_Xy94hhFwid7vifyO8l3-282">
          <mxGeometry x="253.8095238095238" width="48.80952380952381" height="170" as="geometry" />
        </mxCell>
        <mxCell id="_Xy94hhFwid7vifyO8l3-287" value="" style="rounded=1;whiteSpace=wrap;html=1;strokeWidth=2;fillWeight=4;hachureGap=8;hachureAngle=45;fillColor=#ffe6cc;sketch=1;strokeColor=#d79b00;" vertex="1" parent="_Xy94hhFwid7vifyO8l3-282">
          <mxGeometry x="205" width="48.80952380952381" height="170" as="geometry" />
        </mxCell>
        <mxCell id="_Xy94hhFwid7vifyO8l3-288" value="" style="rounded=1;whiteSpace=wrap;html=1;strokeWidth=2;fillWeight=4;hachureGap=8;hachureAngle=45;fillColor=#fff2cc;sketch=1;strokeColor=#d6b656;" vertex="1" parent="_Xy94hhFwid7vifyO8l3-282">
          <mxGeometry x="156.19047619047618" width="48.80952380952381" height="170" as="geometry" />
        </mxCell>
        <mxCell id="_Xy94hhFwid7vifyO8l3-289" value="" style="rounded=1;whiteSpace=wrap;html=1;strokeWidth=2;fillWeight=4;hachureGap=8;hachureAngle=45;fillColor=#f8cecc;sketch=1;strokeColor=#b85450;" vertex="1" parent="_Xy94hhFwid7vifyO8l3-282">
          <mxGeometry x="107.38095238095238" width="48.80952380952381" height="170" as="geometry" />
        </mxCell>
        <mxCell id="_Xy94hhFwid7vifyO8l3-290" value="" style="rounded=1;whiteSpace=wrap;html=1;strokeWidth=2;fillWeight=4;hachureGap=8;hachureAngle=45;fillColor=#dae8fc;sketch=1;strokeColor=#6c8ebf;" vertex="1" parent="_Xy94hhFwid7vifyO8l3-282">
          <mxGeometry x="58.57142857142857" width="48.80952380952381" height="170" as="geometry" />
        </mxCell>
        <mxCell id="_Xy94hhFwid7vifyO8l3-291" value="" style="rounded=1;whiteSpace=wrap;html=1;strokeWidth=2;fillWeight=4;hachureGap=8;hachureAngle=45;fillColor=#d5e8d4;sketch=1;strokeColor=#82b366;" vertex="1" parent="_Xy94hhFwid7vifyO8l3-282">
          <mxGeometry x="9.761904761904761" width="48.80952380952381" height="170" as="geometry" />
        </mxCell>
        <mxCell id="_Xy94hhFwid7vifyO8l3-292" value="" style="group" vertex="1" connectable="0" parent="1">
          <mxGeometry x="1169" y="831" width="410" height="170" as="geometry" />
        </mxCell>
        <mxCell id="_Xy94hhFwid7vifyO8l3-293" value="" style="rounded=0;whiteSpace=wrap;html=1;strokeWidth=3;" vertex="1" parent="_Xy94hhFwid7vifyO8l3-292">
          <mxGeometry width="410" height="170" as="geometry" />
        </mxCell>
        <mxCell id="_Xy94hhFwid7vifyO8l3-294" value="" style="rounded=1;whiteSpace=wrap;html=1;strokeWidth=2;fillWeight=4;hachureGap=8;hachureAngle=45;fillColor=#b0e3e6;sketch=1;strokeColor=#0e8088;" vertex="1" parent="_Xy94hhFwid7vifyO8l3-292">
          <mxGeometry x="351.42857142857144" width="48.80952380952381" height="170" as="geometry" />
        </mxCell>
        <mxCell id="_Xy94hhFwid7vifyO8l3-295" value="" style="rounded=1;whiteSpace=wrap;html=1;strokeWidth=2;fillWeight=4;hachureGap=8;hachureAngle=45;fillColor=#60a917;sketch=1;fontColor=#ffffff;strokeColor=#2D7600;" vertex="1" parent="_Xy94hhFwid7vifyO8l3-292">
          <mxGeometry x="302.6190476190476" width="48.80952380952381" height="170" as="geometry" />
        </mxCell>
        <mxCell id="_Xy94hhFwid7vifyO8l3-296" value="" style="rounded=1;whiteSpace=wrap;html=1;strokeWidth=2;fillWeight=4;hachureGap=8;hachureAngle=45;fillColor=#e1d5e7;sketch=1;strokeColor=#9673a6;" vertex="1" parent="_Xy94hhFwid7vifyO8l3-292">
          <mxGeometry x="253.8095238095238" width="48.80952380952381" height="170" as="geometry" />
        </mxCell>
        <mxCell id="_Xy94hhFwid7vifyO8l3-297" value="" style="rounded=1;whiteSpace=wrap;html=1;strokeWidth=2;fillWeight=4;hachureGap=8;hachureAngle=45;fillColor=#ffe6cc;sketch=1;strokeColor=#d79b00;" vertex="1" parent="_Xy94hhFwid7vifyO8l3-292">
          <mxGeometry x="205" width="48.80952380952381" height="170" as="geometry" />
        </mxCell>
        <mxCell id="_Xy94hhFwid7vifyO8l3-298" value="" style="rounded=1;whiteSpace=wrap;html=1;strokeWidth=2;fillWeight=4;hachureGap=8;hachureAngle=45;fillColor=#fff2cc;sketch=1;strokeColor=#d6b656;" vertex="1" parent="_Xy94hhFwid7vifyO8l3-292">
          <mxGeometry x="156.19047619047618" width="48.80952380952381" height="170" as="geometry" />
        </mxCell>
        <mxCell id="_Xy94hhFwid7vifyO8l3-299" value="" style="rounded=1;whiteSpace=wrap;html=1;strokeWidth=2;fillWeight=4;hachureGap=8;hachureAngle=45;fillColor=#f8cecc;sketch=1;strokeColor=#b85450;" vertex="1" parent="_Xy94hhFwid7vifyO8l3-292">
          <mxGeometry x="107.38095238095238" width="48.80952380952381" height="170" as="geometry" />
        </mxCell>
        <mxCell id="_Xy94hhFwid7vifyO8l3-300" value="" style="rounded=1;whiteSpace=wrap;html=1;strokeWidth=2;fillWeight=4;hachureGap=8;hachureAngle=45;fillColor=#dae8fc;sketch=1;strokeColor=#6c8ebf;" vertex="1" parent="_Xy94hhFwid7vifyO8l3-292">
          <mxGeometry x="58.57142857142857" width="48.80952380952381" height="170" as="geometry" />
        </mxCell>
        <mxCell id="_Xy94hhFwid7vifyO8l3-301" value="" style="rounded=1;whiteSpace=wrap;html=1;strokeWidth=2;fillWeight=4;hachureGap=8;hachureAngle=45;fillColor=#d5e8d4;sketch=1;strokeColor=#82b366;" vertex="1" parent="_Xy94hhFwid7vifyO8l3-292">
          <mxGeometry x="9.761904761904761" width="48.80952380952381" height="170" as="geometry" />
        </mxCell>
        <mxCell id="_Xy94hhFwid7vifyO8l3-302" value="" style="group" vertex="1" connectable="0" parent="1">
          <mxGeometry x="1794" y="833" width="410" height="170" as="geometry" />
        </mxCell>
        <mxCell id="_Xy94hhFwid7vifyO8l3-303" value="" style="rounded=0;whiteSpace=wrap;html=1;strokeWidth=3;" vertex="1" parent="_Xy94hhFwid7vifyO8l3-302">
          <mxGeometry width="410" height="170" as="geometry" />
        </mxCell>
        <mxCell id="_Xy94hhFwid7vifyO8l3-304" value="" style="rounded=1;whiteSpace=wrap;html=1;strokeWidth=2;fillWeight=4;hachureGap=8;hachureAngle=45;fillColor=#b0e3e6;sketch=1;strokeColor=#0e8088;" vertex="1" parent="_Xy94hhFwid7vifyO8l3-302">
          <mxGeometry x="351.42857142857144" width="48.80952380952381" height="170" as="geometry" />
        </mxCell>
        <mxCell id="_Xy94hhFwid7vifyO8l3-305" value="" style="rounded=1;whiteSpace=wrap;html=1;strokeWidth=2;fillWeight=4;hachureGap=8;hachureAngle=45;fillColor=#60a917;sketch=1;fontColor=#ffffff;strokeColor=#2D7600;" vertex="1" parent="_Xy94hhFwid7vifyO8l3-302">
          <mxGeometry x="302.6190476190476" width="48.80952380952381" height="170" as="geometry" />
        </mxCell>
        <mxCell id="_Xy94hhFwid7vifyO8l3-306" value="" style="rounded=1;whiteSpace=wrap;html=1;strokeWidth=2;fillWeight=4;hachureGap=8;hachureAngle=45;fillColor=#e1d5e7;sketch=1;strokeColor=#9673a6;" vertex="1" parent="_Xy94hhFwid7vifyO8l3-302">
          <mxGeometry x="253.8095238095238" width="48.80952380952381" height="170" as="geometry" />
        </mxCell>
        <mxCell id="_Xy94hhFwid7vifyO8l3-307" value="" style="rounded=1;whiteSpace=wrap;html=1;strokeWidth=2;fillWeight=4;hachureGap=8;hachureAngle=45;fillColor=#ffe6cc;sketch=1;strokeColor=#d79b00;" vertex="1" parent="_Xy94hhFwid7vifyO8l3-302">
          <mxGeometry x="205" width="48.80952380952381" height="170" as="geometry" />
        </mxCell>
        <mxCell id="_Xy94hhFwid7vifyO8l3-308" value="" style="rounded=1;whiteSpace=wrap;html=1;strokeWidth=2;fillWeight=4;hachureGap=8;hachureAngle=45;fillColor=#fff2cc;sketch=1;strokeColor=#d6b656;" vertex="1" parent="_Xy94hhFwid7vifyO8l3-302">
          <mxGeometry x="156.19047619047618" width="48.80952380952381" height="170" as="geometry" />
        </mxCell>
        <mxCell id="_Xy94hhFwid7vifyO8l3-309" value="" style="rounded=1;whiteSpace=wrap;html=1;strokeWidth=2;fillWeight=4;hachureGap=8;hachureAngle=45;fillColor=#f8cecc;sketch=1;strokeColor=#b85450;" vertex="1" parent="_Xy94hhFwid7vifyO8l3-302">
          <mxGeometry x="107.38095238095238" width="48.80952380952381" height="170" as="geometry" />
        </mxCell>
        <mxCell id="_Xy94hhFwid7vifyO8l3-310" value="" style="rounded=1;whiteSpace=wrap;html=1;strokeWidth=2;fillWeight=4;hachureGap=8;hachureAngle=45;fillColor=#dae8fc;sketch=1;strokeColor=#6c8ebf;" vertex="1" parent="_Xy94hhFwid7vifyO8l3-302">
          <mxGeometry x="58.57142857142857" width="48.80952380952381" height="170" as="geometry" />
        </mxCell>
        <mxCell id="_Xy94hhFwid7vifyO8l3-311" value="" style="rounded=1;whiteSpace=wrap;html=1;strokeWidth=2;fillWeight=4;hachureGap=8;hachureAngle=45;fillColor=#d5e8d4;sketch=1;strokeColor=#82b366;" vertex="1" parent="_Xy94hhFwid7vifyO8l3-302">
          <mxGeometry x="9.761904761904761" width="48.80952380952381" height="170" as="geometry" />
        </mxCell>
        <mxCell id="_Xy94hhFwid7vifyO8l3-313" value="" style="edgeStyle=orthogonalEdgeStyle;rounded=0;orthogonalLoop=1;jettySize=auto;html=1;exitX=0.5;exitY=1;exitDx=0;exitDy=0;fontSize=26;endArrow=none;strokeColor=#FF3333;strokeWidth=3;" edge="1" parent="1">
          <mxGeometry relative="1" as="geometry">
            <mxPoint x="409" y="469" as="targetPoint" />
            <mxPoint x="327" y="349" as="sourcePoint" />
            <Array as="points">
              <mxPoint x="327" y="469" />
            </Array>
          </mxGeometry>
        </mxCell>
        <mxCell id="_Xy94hhFwid7vifyO8l3-314" value="" style="group" vertex="1" connectable="0" parent="1">
          <mxGeometry x="283.24" y="8153" width="410" height="170" as="geometry" />
        </mxCell>
        <mxCell id="_Xy94hhFwid7vifyO8l3-315" value="&lt;span style=&quot;font-size: 48px;&quot;&gt;Valid&lt;/span&gt;" style="rounded=0;whiteSpace=wrap;html=1;strokeWidth=3;" vertex="1" parent="_Xy94hhFwid7vifyO8l3-314">
          <mxGeometry width="410" height="170" as="geometry" />
        </mxCell>
        <mxCell id="_Xy94hhFwid7vifyO8l3-316" value="" style="group" vertex="1" connectable="0" parent="1">
          <mxGeometry x="723.24" y="8153" width="410" height="170" as="geometry" />
        </mxCell>
        <mxCell id="_Xy94hhFwid7vifyO8l3-317" value="&lt;span style=&quot;font-size: 48px;&quot;&gt;Valid&lt;/span&gt;" style="rounded=0;whiteSpace=wrap;html=1;strokeWidth=3;" vertex="1" parent="_Xy94hhFwid7vifyO8l3-316">
          <mxGeometry width="410" height="170" as="geometry" />
        </mxCell>
        <mxCell id="_Xy94hhFwid7vifyO8l3-318" value="" style="group;fillColor=#D5E8D4;strokeColor=#82b366;" vertex="1" connectable="0" parent="1">
          <mxGeometry x="1153.24" y="8153" width="410" height="170" as="geometry" />
        </mxCell>
        <mxCell id="_Xy94hhFwid7vifyO8l3-319" value="&lt;font style=&quot;font-size: 48px;&quot;&gt;Valid&lt;/font&gt;" style="rounded=0;whiteSpace=wrap;html=1;strokeWidth=3;" vertex="1" parent="_Xy94hhFwid7vifyO8l3-318">
          <mxGeometry width="410" height="170" as="geometry" />
        </mxCell>
        <mxCell id="_Xy94hhFwid7vifyO8l3-320" value="" style="group" vertex="1" connectable="0" parent="1">
          <mxGeometry x="1773.24" y="8153" width="410" height="170" as="geometry" />
        </mxCell>
        <mxCell id="_Xy94hhFwid7vifyO8l3-321" value="&lt;font style=&quot;font-size: 48px;&quot;&gt;Valid&lt;/font&gt;" style="rounded=0;whiteSpace=wrap;html=1;strokeWidth=3;" vertex="1" parent="_Xy94hhFwid7vifyO8l3-320">
          <mxGeometry width="410" height="170" as="geometry" />
        </mxCell>
        <mxCell id="_Xy94hhFwid7vifyO8l3-322" value="" style="shape=curlyBracket;whiteSpace=wrap;html=1;rounded=1;strokeWidth=3;fontSize=26;" vertex="1" parent="1">
          <mxGeometry x="223.24" y="8153" width="20" height="820" as="geometry" />
        </mxCell>
        <mxCell id="_Xy94hhFwid7vifyO8l3-323" value="" style="shape=curlyBracket;whiteSpace=wrap;html=1;rounded=1;strokeWidth=3;fontSize=26;rotation=90;" vertex="1" parent="1">
          <mxGeometry x="1218.24" y="7148" width="20" height="1890" as="geometry" />
        </mxCell>
        <mxCell id="_Xy94hhFwid7vifyO8l3-324" value="&lt;font style=&quot;font-size: 48px;&quot;&gt;ways&lt;/font&gt;" style="text;html=1;strokeColor=none;fillColor=none;align=center;verticalAlign=middle;whiteSpace=wrap;rounded=0;strokeWidth=3;fontSize=26;" vertex="1" parent="1">
          <mxGeometry x="1141.24" y="7989" width="160" height="55" as="geometry" />
        </mxCell>
        <mxCell id="_Xy94hhFwid7vifyO8l3-325" value="" style="group" vertex="1" connectable="0" parent="1">
          <mxGeometry x="278.24" y="8800" width="410" height="170" as="geometry" />
        </mxCell>
        <mxCell id="_Xy94hhFwid7vifyO8l3-326" value="&lt;font style=&quot;font-size: 48px;&quot;&gt;Invalid&lt;/font&gt;" style="rounded=0;whiteSpace=wrap;html=1;strokeWidth=3;" vertex="1" parent="_Xy94hhFwid7vifyO8l3-325">
          <mxGeometry width="410" height="170" as="geometry" />
        </mxCell>
        <mxCell id="_Xy94hhFwid7vifyO8l3-327" value="" style="group" vertex="1" connectable="0" parent="1">
          <mxGeometry x="725.24" y="8800" width="410" height="170" as="geometry" />
        </mxCell>
        <mxCell id="_Xy94hhFwid7vifyO8l3-328" value="&lt;font style=&quot;font-size: 48px;&quot;&gt;Invalid&lt;/font&gt;" style="rounded=0;whiteSpace=wrap;html=1;strokeWidth=3;" vertex="1" parent="_Xy94hhFwid7vifyO8l3-327">
          <mxGeometry width="410" height="170" as="geometry" />
        </mxCell>
        <mxCell id="_Xy94hhFwid7vifyO8l3-329" value="" style="group;fillColor=#D5E8D4;strokeColor=#82b366;" vertex="1" connectable="0" parent="1">
          <mxGeometry x="1158.24" y="8800" width="410" height="170" as="geometry" />
        </mxCell>
        <mxCell id="_Xy94hhFwid7vifyO8l3-330" value="&lt;font style=&quot;font-size: 48px;&quot;&gt;Valid&lt;/font&gt;" style="rounded=0;whiteSpace=wrap;html=1;strokeWidth=3;" vertex="1" parent="_Xy94hhFwid7vifyO8l3-329">
          <mxGeometry width="410" height="170" as="geometry" />
        </mxCell>
        <mxCell id="_Xy94hhFwid7vifyO8l3-331" value="" style="group" vertex="1" connectable="0" parent="1">
          <mxGeometry x="1773.24" y="8800" width="410" height="170" as="geometry" />
        </mxCell>
        <mxCell id="_Xy94hhFwid7vifyO8l3-332" value="&lt;font style=&quot;font-size: 48px;&quot;&gt;Valid&lt;/font&gt;" style="rounded=0;whiteSpace=wrap;html=1;strokeWidth=3;" vertex="1" parent="_Xy94hhFwid7vifyO8l3-331">
          <mxGeometry width="410" height="170" as="geometry" />
        </mxCell>
        <mxCell id="_Xy94hhFwid7vifyO8l3-333" value="" style="group" vertex="1" connectable="0" parent="1">
          <mxGeometry x="283" y="8355" width="410" height="170" as="geometry" />
        </mxCell>
        <mxCell id="_Xy94hhFwid7vifyO8l3-334" value="&lt;font style=&quot;font-size: 48px;&quot;&gt;Valid&lt;/font&gt;" style="rounded=0;whiteSpace=wrap;html=1;strokeWidth=3;" vertex="1" parent="_Xy94hhFwid7vifyO8l3-333">
          <mxGeometry width="410" height="170" as="geometry" />
        </mxCell>
        <mxCell id="_Xy94hhFwid7vifyO8l3-335" value="" style="group" vertex="1" connectable="0" parent="1">
          <mxGeometry x="725.24" y="8355" width="410" height="170" as="geometry" />
        </mxCell>
        <mxCell id="_Xy94hhFwid7vifyO8l3-336" value="&lt;font style=&quot;font-size: 48px;&quot;&gt;Valid&lt;/font&gt;" style="rounded=0;whiteSpace=wrap;html=1;strokeWidth=3;" vertex="1" parent="_Xy94hhFwid7vifyO8l3-335">
          <mxGeometry width="410" height="170" as="geometry" />
        </mxCell>
        <mxCell id="_Xy94hhFwid7vifyO8l3-337" value="" style="group" vertex="1" connectable="0" parent="1">
          <mxGeometry x="1158.24" y="8358" width="410" height="170" as="geometry" />
        </mxCell>
        <mxCell id="_Xy94hhFwid7vifyO8l3-338" value="&lt;font style=&quot;font-size: 48px;&quot;&gt;Valid&lt;/font&gt;" style="rounded=0;whiteSpace=wrap;html=1;strokeWidth=3;" vertex="1" parent="_Xy94hhFwid7vifyO8l3-337">
          <mxGeometry width="410" height="170" as="geometry" />
        </mxCell>
        <mxCell id="_Xy94hhFwid7vifyO8l3-339" value="" style="group" vertex="1" connectable="0" parent="1">
          <mxGeometry x="1773.24" y="8358" width="410" height="170" as="geometry" />
        </mxCell>
        <mxCell id="_Xy94hhFwid7vifyO8l3-340" value="&lt;font style=&quot;font-size: 48px;&quot;&gt;Valid&lt;/font&gt;" style="rounded=0;whiteSpace=wrap;html=1;strokeWidth=3;" vertex="1" parent="_Xy94hhFwid7vifyO8l3-339">
          <mxGeometry width="410" height="170" as="geometry" />
        </mxCell>
        <mxCell id="_Xy94hhFwid7vifyO8l3-341" value="&lt;font style=&quot;font-size: 26px;&quot;&gt;...&lt;/font&gt;" style="text;html=1;strokeColor=none;fillColor=none;align=center;verticalAlign=middle;whiteSpace=wrap;rounded=0;strokeWidth=3;" vertex="1" parent="1">
          <mxGeometry x="1630.24" y="8223" width="60" height="30" as="geometry" />
        </mxCell>
        <mxCell id="_Xy94hhFwid7vifyO8l3-342" value="&lt;font style=&quot;font-size: 26px;&quot;&gt;...&lt;/font&gt;" style="text;html=1;strokeColor=none;fillColor=none;align=center;verticalAlign=middle;whiteSpace=wrap;rounded=0;strokeWidth=3;" vertex="1" parent="1">
          <mxGeometry x="1630.24" y="8420" width="60" height="30" as="geometry" />
        </mxCell>
        <mxCell id="_Xy94hhFwid7vifyO8l3-343" value="&lt;font style=&quot;font-size: 26px;&quot;&gt;...&lt;/font&gt;" style="text;html=1;strokeColor=none;fillColor=none;align=center;verticalAlign=middle;whiteSpace=wrap;rounded=0;strokeWidth=3;" vertex="1" parent="1">
          <mxGeometry x="453.24" y="8639" width="60" height="30" as="geometry" />
        </mxCell>
        <mxCell id="_Xy94hhFwid7vifyO8l3-344" value="&lt;font style=&quot;font-size: 26px;&quot;&gt;...&lt;/font&gt;" style="text;html=1;strokeColor=none;fillColor=none;align=center;verticalAlign=middle;whiteSpace=wrap;rounded=0;strokeWidth=3;" vertex="1" parent="1">
          <mxGeometry x="898.24" y="8639" width="60" height="30" as="geometry" />
        </mxCell>
        <mxCell id="_Xy94hhFwid7vifyO8l3-345" value="&lt;font style=&quot;font-size: 26px;&quot;&gt;...&lt;/font&gt;" style="text;html=1;strokeColor=none;fillColor=none;align=center;verticalAlign=middle;whiteSpace=wrap;rounded=0;strokeWidth=3;" vertex="1" parent="1">
          <mxGeometry x="1328.24" y="8639" width="60" height="30" as="geometry" />
        </mxCell>
        <mxCell id="_Xy94hhFwid7vifyO8l3-346" value="&lt;font style=&quot;font-size: 26px;&quot;&gt;...&lt;/font&gt;" style="text;html=1;strokeColor=none;fillColor=none;align=center;verticalAlign=middle;whiteSpace=wrap;rounded=0;strokeWidth=3;" vertex="1" parent="1">
          <mxGeometry x="1630.24" y="8870" width="60" height="30" as="geometry" />
        </mxCell>
        <mxCell id="_Xy94hhFwid7vifyO8l3-347" value="&lt;font style=&quot;font-size: 26px;&quot;&gt;...&lt;/font&gt;" style="text;html=1;strokeColor=none;fillColor=none;align=center;verticalAlign=middle;whiteSpace=wrap;rounded=0;strokeWidth=3;" vertex="1" parent="1">
          <mxGeometry x="1948.24" y="8639" width="60" height="30" as="geometry" />
        </mxCell>
        <mxCell id="_Xy94hhFwid7vifyO8l3-348" value="&lt;font style=&quot;font-size: 48px;&quot;&gt;sets&lt;/font&gt;" style="text;html=1;strokeColor=none;fillColor=none;align=center;verticalAlign=middle;whiteSpace=wrap;rounded=0;strokeWidth=3;fontSize=26;" vertex="1" parent="1">
          <mxGeometry x="48" y="8535.5" width="160" height="55" as="geometry" />
        </mxCell>
        <mxCell id="_Xy94hhFwid7vifyO8l3-349" style="edgeStyle=orthogonalEdgeStyle;rounded=0;orthogonalLoop=1;jettySize=auto;html=1;exitX=0.5;exitY=1;exitDx=0;exitDy=0;entryX=0;entryY=0.5;entryDx=0;entryDy=0;fontSize=26;curved=1;strokeWidth=3;" edge="1" parent="1" source="_Xy94hhFwid7vifyO8l3-350" target="_Xy94hhFwid7vifyO8l3-315">
          <mxGeometry relative="1" as="geometry">
            <mxPoint x="246.23999999999978" y="8226" as="targetPoint" />
          </mxGeometry>
        </mxCell>
        <mxCell id="_Xy94hhFwid7vifyO8l3-350" value="&lt;font style=&quot;font-size: 42px;&quot;&gt;miss req&lt;/font&gt;" style="text;html=1;strokeColor=none;fillColor=none;align=center;verticalAlign=middle;whiteSpace=wrap;rounded=0;strokeWidth=3;fontSize=26;" vertex="1" parent="1">
          <mxGeometry x="-3" y="7901" width="263" height="66" as="geometry" />
        </mxCell>
        <mxCell id="_Xy94hhFwid7vifyO8l3-351" value="" style="group" vertex="1" connectable="0" parent="1">
          <mxGeometry x="334.24" y="10315" width="410" height="170" as="geometry" />
        </mxCell>
        <mxCell id="_Xy94hhFwid7vifyO8l3-352" value="&lt;span style=&quot;font-size: 48px;&quot;&gt;Valid&lt;/span&gt;" style="rounded=0;whiteSpace=wrap;html=1;strokeWidth=3;" vertex="1" parent="_Xy94hhFwid7vifyO8l3-351">
          <mxGeometry width="410" height="170" as="geometry" />
        </mxCell>
        <mxCell id="_Xy94hhFwid7vifyO8l3-353" value="" style="group" vertex="1" connectable="0" parent="1">
          <mxGeometry x="774.24" y="10315" width="410" height="170" as="geometry" />
        </mxCell>
        <mxCell id="_Xy94hhFwid7vifyO8l3-354" value="&lt;span style=&quot;font-size: 48px;&quot;&gt;Valid&lt;/span&gt;" style="rounded=0;whiteSpace=wrap;html=1;strokeWidth=3;" vertex="1" parent="_Xy94hhFwid7vifyO8l3-353">
          <mxGeometry width="410" height="170" as="geometry" />
        </mxCell>
        <mxCell id="_Xy94hhFwid7vifyO8l3-355" value="" style="group;fillColor=#D5E8D4;strokeColor=#82b366;" vertex="1" connectable="0" parent="1">
          <mxGeometry x="1204.24" y="10315" width="410" height="170" as="geometry" />
        </mxCell>
        <mxCell id="_Xy94hhFwid7vifyO8l3-356" value="&lt;font style=&quot;font-size: 48px;&quot;&gt;Valid&lt;/font&gt;" style="rounded=0;whiteSpace=wrap;html=1;strokeWidth=3;" vertex="1" parent="_Xy94hhFwid7vifyO8l3-355">
          <mxGeometry width="410" height="170" as="geometry" />
        </mxCell>
        <mxCell id="_Xy94hhFwid7vifyO8l3-357" value="" style="group" vertex="1" connectable="0" parent="1">
          <mxGeometry x="1824.24" y="10315" width="410" height="170" as="geometry" />
        </mxCell>
        <mxCell id="_Xy94hhFwid7vifyO8l3-358" value="&lt;font style=&quot;font-size: 48px;&quot;&gt;Valid&lt;/font&gt;" style="rounded=0;whiteSpace=wrap;html=1;strokeWidth=3;" vertex="1" parent="_Xy94hhFwid7vifyO8l3-357">
          <mxGeometry width="410" height="170" as="geometry" />
        </mxCell>
        <mxCell id="_Xy94hhFwid7vifyO8l3-359" value="" style="shape=curlyBracket;whiteSpace=wrap;html=1;rounded=1;strokeWidth=3;fontSize=26;" vertex="1" parent="1">
          <mxGeometry x="274.24" y="10315" width="20" height="820" as="geometry" />
        </mxCell>
        <mxCell id="_Xy94hhFwid7vifyO8l3-360" value="" style="shape=curlyBracket;whiteSpace=wrap;html=1;rounded=1;strokeWidth=3;fontSize=26;rotation=90;" vertex="1" parent="1">
          <mxGeometry x="1269.24" y="9310" width="20" height="1890" as="geometry" />
        </mxCell>
        <mxCell id="_Xy94hhFwid7vifyO8l3-361" value="&lt;font style=&quot;font-size: 48px;&quot;&gt;ways&lt;/font&gt;" style="text;html=1;strokeColor=none;fillColor=none;align=center;verticalAlign=middle;whiteSpace=wrap;rounded=0;strokeWidth=3;fontSize=26;" vertex="1" parent="1">
          <mxGeometry x="1192.24" y="10151" width="160" height="55" as="geometry" />
        </mxCell>
        <mxCell id="_Xy94hhFwid7vifyO8l3-362" value="" style="group" vertex="1" connectable="0" parent="1">
          <mxGeometry x="329.24" y="10962" width="410" height="170" as="geometry" />
        </mxCell>
        <mxCell id="_Xy94hhFwid7vifyO8l3-363" value="&lt;font style=&quot;font-size: 48px;&quot;&gt;Invalid&lt;/font&gt;" style="rounded=0;whiteSpace=wrap;html=1;strokeWidth=3;" vertex="1" parent="_Xy94hhFwid7vifyO8l3-362">
          <mxGeometry width="410" height="170" as="geometry" />
        </mxCell>
        <mxCell id="_Xy94hhFwid7vifyO8l3-364" value="" style="group" vertex="1" connectable="0" parent="1">
          <mxGeometry x="776.24" y="10962" width="410" height="170" as="geometry" />
        </mxCell>
        <mxCell id="_Xy94hhFwid7vifyO8l3-365" value="&lt;font style=&quot;font-size: 48px;&quot;&gt;Invalid&lt;/font&gt;" style="rounded=0;whiteSpace=wrap;html=1;strokeWidth=3;" vertex="1" parent="_Xy94hhFwid7vifyO8l3-364">
          <mxGeometry width="410" height="170" as="geometry" />
        </mxCell>
        <mxCell id="_Xy94hhFwid7vifyO8l3-366" value="" style="group;fillColor=#D5E8D4;strokeColor=#82b366;" vertex="1" connectable="0" parent="1">
          <mxGeometry x="1209.24" y="10962" width="410" height="170" as="geometry" />
        </mxCell>
        <mxCell id="_Xy94hhFwid7vifyO8l3-367" value="&lt;font style=&quot;font-size: 48px;&quot;&gt;Valid&lt;/font&gt;" style="rounded=0;whiteSpace=wrap;html=1;strokeWidth=3;" vertex="1" parent="_Xy94hhFwid7vifyO8l3-366">
          <mxGeometry width="410" height="170" as="geometry" />
        </mxCell>
        <mxCell id="_Xy94hhFwid7vifyO8l3-368" value="" style="group" vertex="1" connectable="0" parent="1">
          <mxGeometry x="1824.24" y="10962" width="410" height="170" as="geometry" />
        </mxCell>
        <mxCell id="_Xy94hhFwid7vifyO8l3-369" value="&lt;font style=&quot;font-size: 48px;&quot;&gt;Valid&lt;/font&gt;" style="rounded=0;whiteSpace=wrap;html=1;strokeWidth=3;" vertex="1" parent="_Xy94hhFwid7vifyO8l3-368">
          <mxGeometry width="410" height="170" as="geometry" />
        </mxCell>
        <mxCell id="_Xy94hhFwid7vifyO8l3-370" value="" style="group" vertex="1" connectable="0" parent="1">
          <mxGeometry x="334" y="10517" width="410" height="170" as="geometry" />
        </mxCell>
        <mxCell id="_Xy94hhFwid7vifyO8l3-371" value="&lt;font style=&quot;font-size: 48px;&quot;&gt;Valid&lt;/font&gt;" style="rounded=0;whiteSpace=wrap;html=1;strokeWidth=3;" vertex="1" parent="_Xy94hhFwid7vifyO8l3-370">
          <mxGeometry width="410" height="170" as="geometry" />
        </mxCell>
        <mxCell id="_Xy94hhFwid7vifyO8l3-372" value="" style="group" vertex="1" connectable="0" parent="1">
          <mxGeometry x="776.24" y="10517" width="410" height="170" as="geometry" />
        </mxCell>
        <mxCell id="_Xy94hhFwid7vifyO8l3-373" value="&lt;font style=&quot;font-size: 48px;&quot;&gt;Valid&lt;/font&gt;" style="rounded=0;whiteSpace=wrap;html=1;strokeWidth=3;" vertex="1" parent="_Xy94hhFwid7vifyO8l3-372">
          <mxGeometry width="410" height="170" as="geometry" />
        </mxCell>
        <mxCell id="_Xy94hhFwid7vifyO8l3-374" value="" style="group" vertex="1" connectable="0" parent="1">
          <mxGeometry x="1209.24" y="10520" width="410" height="170" as="geometry" />
        </mxCell>
        <mxCell id="_Xy94hhFwid7vifyO8l3-375" value="&lt;font style=&quot;font-size: 48px;&quot;&gt;Valid&lt;/font&gt;" style="rounded=0;whiteSpace=wrap;html=1;strokeWidth=3;" vertex="1" parent="_Xy94hhFwid7vifyO8l3-374">
          <mxGeometry width="410" height="170" as="geometry" />
        </mxCell>
        <mxCell id="_Xy94hhFwid7vifyO8l3-376" value="" style="group" vertex="1" connectable="0" parent="1">
          <mxGeometry x="1824.24" y="10520" width="410" height="170" as="geometry" />
        </mxCell>
        <mxCell id="_Xy94hhFwid7vifyO8l3-377" value="&lt;font style=&quot;font-size: 48px;&quot;&gt;Valid&lt;/font&gt;" style="rounded=0;whiteSpace=wrap;html=1;strokeWidth=3;" vertex="1" parent="_Xy94hhFwid7vifyO8l3-376">
          <mxGeometry width="410" height="170" as="geometry" />
        </mxCell>
        <mxCell id="_Xy94hhFwid7vifyO8l3-378" value="&lt;font style=&quot;font-size: 26px;&quot;&gt;...&lt;/font&gt;" style="text;html=1;strokeColor=none;fillColor=none;align=center;verticalAlign=middle;whiteSpace=wrap;rounded=0;strokeWidth=3;" vertex="1" parent="1">
          <mxGeometry x="1681.24" y="10385" width="60" height="30" as="geometry" />
        </mxCell>
        <mxCell id="_Xy94hhFwid7vifyO8l3-379" value="&lt;font style=&quot;font-size: 26px;&quot;&gt;...&lt;/font&gt;" style="text;html=1;strokeColor=none;fillColor=none;align=center;verticalAlign=middle;whiteSpace=wrap;rounded=0;strokeWidth=3;" vertex="1" parent="1">
          <mxGeometry x="1681.24" y="10582" width="60" height="30" as="geometry" />
        </mxCell>
        <mxCell id="_Xy94hhFwid7vifyO8l3-380" value="&lt;font style=&quot;font-size: 26px;&quot;&gt;...&lt;/font&gt;" style="text;html=1;strokeColor=none;fillColor=none;align=center;verticalAlign=middle;whiteSpace=wrap;rounded=0;strokeWidth=3;" vertex="1" parent="1">
          <mxGeometry x="504.24" y="10801" width="60" height="30" as="geometry" />
        </mxCell>
        <mxCell id="_Xy94hhFwid7vifyO8l3-381" value="&lt;font style=&quot;font-size: 26px;&quot;&gt;...&lt;/font&gt;" style="text;html=1;strokeColor=none;fillColor=none;align=center;verticalAlign=middle;whiteSpace=wrap;rounded=0;strokeWidth=3;" vertex="1" parent="1">
          <mxGeometry x="949.24" y="10801" width="60" height="30" as="geometry" />
        </mxCell>
        <mxCell id="_Xy94hhFwid7vifyO8l3-382" value="&lt;font style=&quot;font-size: 26px;&quot;&gt;...&lt;/font&gt;" style="text;html=1;strokeColor=none;fillColor=none;align=center;verticalAlign=middle;whiteSpace=wrap;rounded=0;strokeWidth=3;" vertex="1" parent="1">
          <mxGeometry x="1379.24" y="10801" width="60" height="30" as="geometry" />
        </mxCell>
        <mxCell id="_Xy94hhFwid7vifyO8l3-383" value="&lt;font style=&quot;font-size: 26px;&quot;&gt;...&lt;/font&gt;" style="text;html=1;strokeColor=none;fillColor=none;align=center;verticalAlign=middle;whiteSpace=wrap;rounded=0;strokeWidth=3;" vertex="1" parent="1">
          <mxGeometry x="1681.24" y="11032" width="60" height="30" as="geometry" />
        </mxCell>
        <mxCell id="_Xy94hhFwid7vifyO8l3-384" value="&lt;font style=&quot;font-size: 26px;&quot;&gt;...&lt;/font&gt;" style="text;html=1;strokeColor=none;fillColor=none;align=center;verticalAlign=middle;whiteSpace=wrap;rounded=0;strokeWidth=3;" vertex="1" parent="1">
          <mxGeometry x="1999.24" y="10801" width="60" height="30" as="geometry" />
        </mxCell>
        <mxCell id="_Xy94hhFwid7vifyO8l3-385" value="&lt;font style=&quot;font-size: 48px;&quot;&gt;sets&lt;/font&gt;" style="text;html=1;strokeColor=none;fillColor=none;align=center;verticalAlign=middle;whiteSpace=wrap;rounded=0;strokeWidth=3;fontSize=26;" vertex="1" parent="1">
          <mxGeometry x="99" y="10697.5" width="160" height="55" as="geometry" />
        </mxCell>
        <mxCell id="_Xy94hhFwid7vifyO8l3-386" style="edgeStyle=orthogonalEdgeStyle;rounded=0;orthogonalLoop=1;jettySize=auto;html=1;exitX=0.5;exitY=0;exitDx=0;exitDy=0;entryX=0;entryY=0.5;entryDx=0;entryDy=0;fontSize=26;curved=1;strokeWidth=3;" edge="1" parent="1" source="_Xy94hhFwid7vifyO8l3-388" target="_Xy94hhFwid7vifyO8l3-363">
          <mxGeometry relative="1" as="geometry">
            <mxPoint x="339.75999999999976" y="11564" as="targetPoint" />
            <mxPoint x="185.02" y="11293" as="sourcePoint" />
          </mxGeometry>
        </mxCell>
        <mxCell id="_Xy94hhFwid7vifyO8l3-388" value="&lt;font style=&quot;font-size: 42px;&quot;&gt;miss req&lt;/font&gt;" style="text;html=1;strokeColor=none;fillColor=none;align=center;verticalAlign=middle;whiteSpace=wrap;rounded=0;strokeWidth=3;fontSize=26;" vertex="1" parent="1">
          <mxGeometry x="53.519999999999996" y="11227" width="263" height="66" as="geometry" />
        </mxCell>
      </root>
    </mxGraphModel>
  </diagram>
</mxfile>
